<svg width="155" height="308" viewBox="0 0 155 308" fill="none" xmlns="http://www.w3.org/2000/svg">
<rect width="155" height="308" rx="12" fill="white"/>
<g clip-path="url(#clip0_439_9626)">
<path opacity="0.3" d="M122.541 91.5367C112.47 115.008 85.8849 125.089 65.0551 123.37C59.3677 122.901 47.9246 121.956 38.9897 113.532C21.8308 97.3533 24.4734 63.5357 40.8994 43.6258C43.0147 41.0618 57.6567 23.8833 80.4734 24.1132C97.1786 24.2816 108.904 33.6902 110.33 34.8623C112.131 36.343 116.103 39.8617 119.683 45.4438C128.095 58.5598 128.835 76.8698 122.541 91.5367Z" fill="url(#paint0_linear_439_9626)"/>
<path d="M53.9536 86.1862C53.9536 86.1862 54.261 73.3023 48.3091 69.854C42.3573 66.4057 31.0408 64.2498 30.6166 45.7497C30.3682 34.919 30.0995 30.1836 29.9193 28.1188C29.8491 27.3133 30.5669 26.6632 31.3638 26.8128C37.0007 27.8716 55.3125 32.2294 59.1517 44.691C63.703 59.4644 53.9536 86.1862 53.9536 86.1862Z" fill="url(#paint1_linear_439_9626)"/>
<path d="M35.7232 31.9601C41.9108 37.4622 49.0656 47.1999 52.8792 56.9375C53.3687 58.5423 54.8006 61.9552 55.4224 68.0188C55.9778 73.076 55.7017 78.42 55.0283 81.9574C54.9857 82.1811 54.7693 82.3279 54.545 82.2855C54.1593 82.2125 54.2106 81.7989 54.2141 81.812C54.9832 75.7682 54.664 68.2457 52.9017 61.4582C50.6502 53.124 45.6285 45.0436 40.4344 38.1904L39.8999 37.5155C35.8758 32.3629 35.0286 32.3249 35.4048 31.9658C35.4937 31.8809 35.6328 31.8802 35.7232 31.9601Z" fill="#37437D"/>
<path d="M63.5184 110.957C64.3236 111.351 55.895 100.783 53.2547 84.186C52.0105 76.3649 51.9943 66.5657 47.5258 62.7895C43.8068 59.6466 31.1517 61.6308 27.0109 62.3849C26.4935 62.4791 26.3193 63.1307 26.722 63.468C28.7078 65.1307 32.9556 69.0527 34.0624 73.0053C35.5213 78.2151 40.4891 81.5289 44.9366 82.4257C49.384 83.3225 51.8581 84.1928 54.0248 91.2842C56.1914 98.3756 61.2303 109.839 63.5184 110.957Z" fill="url(#paint2_linear_439_9626)"/>
<path d="M32.8347 64.5861C38.1177 64.8067 43.7885 67.2095 46.6663 71.7167L46.938 72.1468C47.5653 73.1552 51.1207 80.3241 53.0953 86.2668C53.1199 86.3409 53.0797 86.4209 53.0054 86.4454C52.8792 86.4871 52.8159 86.3486 52.828 86.3608C51.4522 83.0037 49.4762 78.7473 47.9025 75.5644C46.2148 72.0912 45.0337 69.739 41.1842 67.486C36.8995 65.0596 32.8062 64.8098 32.8184 64.8123C32.7559 64.8059 32.7105 64.7503 32.7169 64.688C32.7229 64.628 32.7751 64.5838 32.8347 64.5861Z" fill="#EEEFFF"/>
<path d="M59.9051 112.347C60.383 112.599 57.2134 107.159 56.9702 102.367C56.727 97.5752 55.6427 89.3961 51.4979 84.5034C47.3532 79.6108 42.8142 79.1644 37.0949 83.6123C32.3289 87.3188 29.3559 89.1894 27.6124 89.5371C27.1807 89.6232 26.9604 90.1091 27.1704 90.4949C28.2887 92.5481 31.4503 97.2644 36.7588 96.9324C43.5302 96.5089 51.7366 92.12 54.2378 95.7812C56.739 99.4424 56.4178 101.491 56.4946 103.226C56.5715 104.961 56.7428 110.685 59.9051 112.347Z" fill="url(#paint3_linear_439_9626)"/>
<path d="M39.0163 89.487C41.0908 87.5042 44.4692 85.5557 47.4218 85.919C51.2634 86.536 53.8225 89.0937 55.2184 92.9012C55.7641 94.5179 55.9886 95.3809 56.3112 97.3626C56.337 97.5208 56.1028 97.5681 56.0639 97.4136C55.8291 96.4828 55.5966 95.5081 55.2487 94.5001C53.2239 87.9967 48.9015 87.1207 48.7333 86.9876C48.4066 87.0198 46.4255 85.5411 41.7249 88.063C40.8471 88.5394 39.9927 89.0831 39.1905 89.6829L39.186 89.6862C39.128 89.7296 39.0457 89.7179 39.0021 89.66C38.9619 89.6065 38.969 89.5321 39.0163 89.487Z" fill="#37437D"/>
<path d="M49.6737 24.3929C47.0655 24.6191 45.0657 26.797 45.0583 29.4073C45.0129 45.3707 44.9379 100.432 45.9815 119.921C46.0921 121.986 47.7898 123.608 49.8634 123.63C60.1196 123.74 89.6213 123.942 106.37 122.874C109.858 122.652 112.573 119.771 112.568 116.286C112.548 99.532 112.279 52.4137 109.978 30.8766C109.702 28.2961 107.621 26.2819 105.026 26.0803C93.8404 25.2113 64.1358 23.1389 49.6737 24.3929Z" fill="url(#paint4_linear_439_9626)"/>
<path d="M49.1753 33.5909C48.9738 47.2461 48.4004 92.6713 49.4014 109.437C49.5477 111.887 51.4569 113.822 53.8143 113.904C63.5204 114.241 88.41 114.894 102.593 113.338C105.146 113.058 107.098 110.851 107.166 108.178C107.521 94.2433 108.479 51.935 107.506 35.3568C107.351 32.7121 105.325 30.6019 102.784 30.4312C92.2749 29.7252 65.2881 28.0969 53.2277 29.0983C50.9637 29.2862 49.2101 31.2268 49.1753 33.5909Z" fill="url(#paint5_linear_439_9626)"/>
<path d="M72.6263 26.7671C72.6346 27.1444 72.9363 27.4491 73.3146 27.4606C75.1822 27.5171 80.4434 27.6777 82.7949 27.7622C83.2585 27.7789 83.6129 27.3559 83.515 26.9037C83.507 26.8894 83.4468 26.3096 82.8529 26.2685C81.2622 26.1582 76.4632 25.8609 73.2918 26.0433C72.6406 26.0808 72.6052 26.8192 72.6263 26.7671Z" fill="#EEEFFF"/>
<path opacity="0.5" d="M76.006 111.322H53.3971C52.9768 111.322 52.6361 110.982 52.6361 110.563V96.4693C52.6361 96.09 52.9445 95.7825 53.325 95.7825H75.9677C76.2848 95.7825 76.542 96.0388 76.542 96.3551V110.787C76.542 111.082 76.302 111.322 76.006 111.322Z" fill="white"/>
<path opacity="0.5" d="M102.956 110.928H80.3755C80.0223 110.928 79.736 110.643 79.736 110.291V96.0547C79.736 95.6871 80.0349 95.3892 80.4036 95.3892H103.001C103.355 95.3892 103.642 95.6751 103.642 96.0279V110.244C103.642 110.622 103.335 110.928 102.956 110.928Z" fill="white"/>
<path opacity="0.5" d="M76.7487 93.4905H54.1399C53.7196 93.4905 53.3789 93.1508 53.3789 92.7317V78.638C53.3789 78.2587 53.6873 77.9512 54.0678 77.9512H76.7104C77.0276 77.9512 77.2848 78.2075 77.2848 78.5238V92.9561C77.2848 93.2512 77.0448 93.4905 76.7487 93.4905Z" fill="white"/>
<path opacity="0.5" d="M103.496 93.3163H80.9162C80.563 93.3163 80.2768 93.0308 80.2768 92.6787V78.4425C80.2768 78.0749 80.5756 77.777 80.9443 77.777H103.542C103.896 77.777 104.183 78.063 104.183 78.4157V92.6321C104.183 93.01 103.875 93.3163 103.496 93.3163Z" fill="white"/>
<path opacity="0.5" d="M60.6943 74.4722C64.4756 74.4722 67.5409 71.4159 67.5409 67.6458C67.5409 63.8757 64.4756 60.8195 60.6943 60.8195C56.913 60.8195 53.8477 63.8757 53.8477 67.6458C53.8477 71.4159 56.913 74.4722 60.6943 74.4722Z" fill="white"/>
<path opacity="0.5" d="M79.0507 75.0311C82.832 75.0311 85.8974 71.9749 85.8974 68.2048C85.8974 64.4347 82.832 61.3784 79.0507 61.3784C75.2694 61.3784 72.2041 64.4347 72.2041 68.2048C72.2041 71.9749 75.2694 75.0311 79.0507 75.0311Z" fill="white"/>
<path opacity="0.5" d="M97.4668 75.1219C101.248 75.1219 104.313 72.0657 104.313 68.2956C104.313 64.5255 101.248 61.4692 97.4668 61.4692C93.6855 61.4692 90.6201 64.5255 90.6201 68.2956C90.6201 72.0657 93.6855 75.1219 97.4668 75.1219Z" fill="white"/>
<path opacity="0.5" d="M105.231 53.0915C105.27 54.6352 104.02 55.9046 102.471 55.8955L55.949 55.6231C54.2744 55.6061 52.9429 54.2169 53.0019 52.5482L53.0004 36.044C53.0002 33.7556 54.903 31.9231 57.1967 32.0025L102.385 33.567C103.775 33.6158 104.863 34.7789 104.814 36.1648L105.231 53.0915Z" fill="white"/>
<path opacity="0.5" d="M97.3132 52.1859C99.336 50.1691 99.3359 46.8993 97.3132 44.8825C95.2904 42.8657 92.0108 42.8657 89.988 44.8825C87.9652 46.8992 87.9652 50.1691 89.988 52.1859C92.0108 54.2027 95.2904 54.2027 97.3132 52.1859Z" fill="white"/>
<path d="M93.774 51.6698C95.4434 51.6698 96.7968 50.3205 96.7968 48.656C96.7968 46.9915 95.4434 45.6422 93.774 45.6422C92.1046 45.6422 90.7513 46.9915 90.7513 48.656C90.7513 50.3205 92.1046 51.6698 93.774 51.6698Z" fill="white"/>
<path d="M111.34 58.037C111.34 58.037 112.819 58.7544 113.091 59.5786C113.309 60.2399 114.945 60.3252 115.107 61.6257C115.19 62.2972 115.688 62.835 116.359 62.9375C118.03 63.1928 120.605 64.0578 121.017 66.9499C121.331 69.1574 120.202 69.9944 119.018 70.2842C118.148 70.497 117.57 71.3407 117.746 72.2164C117.914 73.0564 117.663 74.0275 116.203 74.7953C112.932 76.5161 109.666 70.7188 109.666 70.7188L108.997 60.5965L111.34 58.037Z" fill="url(#paint6_linear_439_9626)"/>
<path d="M95.9436 52.6987C95.9436 52.6987 100.152 64.1376 107.323 67.7127C107.323 67.7127 104.936 71.5955 103.691 71.831C103.691 71.831 96.0303 62.0554 95.2493 54.0466L95.9436 52.6987Z" fill="url(#paint7_linear_439_9626)"/>
<path d="M124.783 121.507L124.995 123.242C125.035 123.571 125.295 123.831 125.625 123.869C126.183 123.932 127.078 123.998 127.954 123.905C128.338 123.865 128.588 123.477 128.471 123.109C128.257 122.44 127.867 121.434 127.304 120.843H125.374C125.017 120.843 124.74 121.154 124.783 121.507Z" fill="url(#paint8_linear_439_9626)"/>
<path d="M109.666 101.186L109.34 103.096C109.34 103.096 110.431 114.114 110.625 118.521C110.656 119.212 110.476 119.895 110.113 120.484L108.216 123.555L113.037 120.719L113.133 120.132L112.344 119.05L113.377 106.708C113.438 105.983 113.288 105.255 112.945 104.613L111.948 102.745L109.666 101.186Z" fill="url(#paint9_linear_439_9626)"/>
<path d="M107.898 124H109.437C109.725 124 109.996 123.868 110.172 123.641C110.652 123.019 111.645 121.807 112.12 121.775C112.76 121.733 112.678 124 112.678 124H113.037L113.491 121.183C113.605 120.474 113.252 119.772 112.613 119.439C112.613 119.439 112.467 120.518 111.674 120.995C110.881 121.471 108.448 123.179 108.448 123.179C108.448 123.179 108.15 123.137 107.822 123.196C107.337 123.283 107.405 124 107.898 124Z" fill="url(#paint10_linear_439_9626)"/>
<path d="M116.269 102.093C116.269 102.093 122.661 114.18 123.676 116.94C124.692 119.7 125.048 122.002 125.062 122.22C125.083 122.561 125.508 122.888 126.68 122.888C127.284 122.888 127.58 122.646 127.725 122.412C127.849 122.213 127.855 121.963 127.751 121.753C127.381 121.007 126.208 118.623 125.774 117.542C125.255 116.251 124.139 110.4 123.527 108.366C122.915 106.332 122.223 104.125 119.558 102.093C119.558 102.093 117.729 100.306 116.269 102.093Z" fill="url(#paint11_linear_439_9626)"/>
<path d="M112.232 82.2872C110.583 75.322 114.76 71.3826 114.76 71.3826C112.125 68.8605 107.323 67.7129 107.323 67.7129C107.323 67.7129 102.742 71.0525 103.285 73.6665C103.604 75.1986 106.506 82.8433 106.506 82.8433C106.506 82.8433 109.189 84.1095 112.232 82.2872Z" fill="white"/>
<path d="M115.887 85.7354C115.216 83.7201 112.232 82.2871 112.232 82.2871C109.189 84.1094 106.506 82.8433 106.506 82.8433C106.506 82.8433 105.904 85.1366 106.319 87.2679C106.734 89.3991 109.34 103.096 109.34 103.096C113.446 103.926 119.761 102.262 119.761 102.262C117.146 97.6321 116.558 87.7506 115.887 85.7354Z" fill="url(#paint12_linear_439_9626)"/>
<path d="M110.318 63.11L111.659 69.1128C111.787 69.6415 111.304 69.555 110.767 69.4542C109.889 69.2892 108.758 68.9492 108.379 68.268C108.341 68.1987 108.322 68.1203 108.311 68.0418L107.735 63.8793C107.689 63.5491 107.868 63.2286 108.174 63.0934L109.285 62.6021C109.713 62.4131 110.208 62.6565 110.318 63.11Z" fill="url(#paint13_linear_439_9626)"/>
<path d="M108.746 57.3945C108.746 57.3945 107.158 58.0628 106.079 60.3499C105 62.637 105.806 63.693 106.818 63.838C107.831 63.983 109.345 63.9609 110.946 62.4834C112.548 61.006 110.809 56.6023 108.746 57.3945Z" fill="url(#paint14_linear_439_9626)"/>
<path d="M109.87 61.2624C109.87 61.2624 111.067 57.9163 108.092 57.8767L107.392 58.3646C107.392 58.3646 106.3 56.5094 108.092 55.6238C109.884 54.7382 111.981 55.4697 112.743 57.8767C113.506 60.2836 113.636 61.8949 112.368 63.0465C111.099 64.198 110.576 62.8923 110.576 62.8923C110.576 62.8923 111.267 61.8152 110.986 61.2389C110.704 60.6626 110.056 61.3581 110.056 61.3581L109.87 61.2624Z" fill="url(#paint15_linear_439_9626)"/>
<path d="M110.203 61.6351C110.203 61.6351 110.809 59.9115 111.617 60.5979C112.425 61.2844 110.96 62.1901 110.387 62.4835L110.203 61.6351Z" fill="url(#paint16_linear_439_9626)"/>
<path d="M95.5396 54.7808C95.4754 54.9843 96.2189 55.2942 96.6567 54.4619C96.6721 54.0629 96.9154 52.3539 96.6763 52.0288C95.4029 50.298 92.9341 48.1282 92.9341 48.1282C92.5169 48.5387 92.8606 48.9419 92.8606 48.9419L94.0582 50.1858C93.8077 50.6372 93.5022 51.0182 93.359 51.5641C93.2505 51.9775 93.3169 52.4193 93.5264 52.7956C93.7366 53.1732 94.0234 53.6641 94.2946 54.0482C94.8078 54.7753 95.5396 54.7808 95.5396 54.7808Z" fill="url(#paint17_linear_439_9626)"/>
<path d="M94.9333 53.9298C94.8433 53.4287 94.5681 52.0604 94.3777 51.7516C94.2453 51.5368 94.2019 51.3576 94.2452 51.2038C94.2815 51.0749 94.3751 50.9734 94.5313 50.8939L94.5975 50.8601L95.7678 51.8493L96.1207 52.7951L95.9116 52.8726L95.579 51.9815L94.5701 51.1286C94.5104 51.1691 94.4742 51.2137 94.46 51.2638C94.4349 51.3534 94.4711 51.4782 94.5678 51.6351C94.8191 52.0428 95.1394 53.8153 95.1529 53.8906L94.9333 53.9298Z" fill="url(#paint18_linear_439_9626)"/>
<path d="M114.76 71.3826C114.76 71.3826 124.115 78.0558 115.956 85.068C115.956 85.068 115.645 85.4189 115.033 85.6014C114.724 85.6934 113.81 86.3829 113.347 86.7424C113.198 86.8579 112.983 86.8186 112.883 86.6591C112.804 86.5341 112.795 86.3778 112.858 86.2445L114.016 83.8028C114.338 83.5035 114.83 83.4823 115.177 83.7527C115.397 83.9252 115.721 83.853 115.845 83.6018C116.476 82.3211 117.666 78.5544 112.792 74.2981C112.609 74.1381 112.562 73.8735 112.675 73.658C113.017 73.002 113.801 71.6995 114.76 71.3826Z" fill="url(#paint19_linear_439_9626)"/>
</g>
<path d="M46.4842 154V145.273H51.9558V146.406H47.801V149.065H51.6703V150.195H47.801V152.866H52.0069V154H46.4842ZM54.6181 147.455L56.0627 150.003L57.5201 147.455H58.9135L56.8723 150.727L58.9306 154H57.5371L56.0627 151.554L54.5925 154H53.1948L55.2317 150.727L53.2203 147.455H54.6181ZM60.2218 156.455V147.455H61.4661V148.516H61.5726C61.6465 148.379 61.753 148.222 61.8922 148.043C62.0314 147.864 62.2246 147.707 62.4718 147.574C62.7189 147.438 63.0456 147.369 63.4519 147.369C63.9803 147.369 64.4519 147.503 64.8667 147.77C65.2814 148.037 65.6067 148.422 65.8425 148.925C66.0811 149.428 66.2005 150.033 66.2005 150.74C66.2005 151.447 66.0826 152.054 65.8468 152.56C65.611 153.062 65.2871 153.45 64.8752 153.723C64.4632 153.993 63.9931 154.128 63.4647 154.128C63.0669 154.128 62.7417 154.061 62.4888 153.928C62.2388 153.794 62.0428 153.638 61.9007 153.459C61.7587 153.28 61.6493 153.121 61.5726 152.982H61.4959V156.455H60.2218ZM61.4703 150.727C61.4703 151.187 61.5371 151.591 61.6706 151.938C61.8042 152.284 61.9973 152.555 62.2502 152.751C62.503 152.945 62.8127 153.041 63.1792 153.041C63.5598 153.041 63.878 152.94 64.1337 152.739C64.3894 152.534 64.5826 152.257 64.7132 151.908C64.8468 151.558 64.9135 151.165 64.9135 150.727C64.9135 150.295 64.8482 149.908 64.7175 149.564C64.5897 149.22 64.3965 148.949 64.138 148.75C63.8823 148.551 63.5627 148.452 63.1792 148.452C62.8098 148.452 62.4973 148.547 62.2417 148.737C61.9888 148.928 61.7971 149.193 61.6664 149.534C61.5357 149.875 61.4703 150.273 61.4703 150.727ZM70.449 154.132C69.8042 154.132 69.2488 153.994 68.7828 153.719C68.3198 153.44 67.9618 153.05 67.709 152.547C67.459 152.041 67.334 151.449 67.334 150.77C67.334 150.099 67.459 149.509 67.709 148.997C67.9618 148.486 68.3141 148.087 68.7658 147.8C69.2203 147.513 69.7516 147.369 70.3596 147.369C70.7289 147.369 71.0868 147.43 71.4334 147.553C71.78 147.675 72.0911 147.866 72.3667 148.128C72.6422 148.389 72.8596 148.729 73.0186 149.146C73.1777 149.561 73.2573 150.065 73.2573 150.659V151.111H68.0542V150.156H72.0087C72.0087 149.821 71.9405 149.524 71.8042 149.266C71.6678 149.004 71.476 148.798 71.2289 148.648C70.9846 148.497 70.6976 148.422 70.3681 148.422C70.0101 148.422 69.6976 148.51 69.4306 148.686C69.1664 148.859 68.9618 149.087 68.8169 149.368C68.6749 149.646 68.6039 149.949 68.6039 150.276V151.021C68.6039 151.459 68.6806 151.831 68.834 152.138C68.9902 152.445 69.2076 152.679 69.486 152.841C69.7644 153 70.0897 153.08 70.4618 153.08C70.7033 153.08 70.9235 153.045 71.1223 152.977C71.3212 152.906 71.4931 152.801 71.638 152.662C71.7828 152.523 71.8936 152.351 71.9703 152.146L73.1763 152.364C73.0797 152.719 72.9064 153.03 72.6564 153.297C72.4093 153.561 72.0982 153.767 71.7232 153.915C71.351 154.06 70.9263 154.132 70.449 154.132ZM74.671 154V147.455H75.9025V148.494H75.9707C76.09 148.142 76.3002 147.865 76.6014 147.663C76.9054 147.459 77.2491 147.357 77.6326 147.357C77.7122 147.357 77.8059 147.359 77.9139 147.365C78.0247 147.371 78.1113 147.378 78.1738 147.386V148.605C78.1227 148.591 78.0318 148.575 77.9011 148.558C77.7704 148.538 77.6397 148.528 77.5091 148.528C77.2079 148.528 76.9395 148.592 76.7037 148.72C76.4707 148.845 76.286 149.02 76.1497 149.244C76.0133 149.466 75.9451 149.719 75.9451 150.003V154H74.671ZM79.2765 154V147.455H80.5506V154H79.2765ZM79.9199 146.445C79.6983 146.445 79.508 146.371 79.3489 146.223C79.1926 146.072 79.1145 145.893 79.1145 145.686C79.1145 145.476 79.1926 145.297 79.3489 145.149C79.508 144.999 79.6983 144.923 79.9199 144.923C80.1415 144.923 80.3304 144.999 80.4867 145.149C80.6458 145.297 80.7253 145.476 80.7253 145.686C80.7253 145.893 80.6458 146.072 80.4867 146.223C80.3304 146.371 80.1415 146.445 79.9199 146.445ZM85.0858 154.132C84.4409 154.132 83.8855 153.994 83.4196 153.719C82.9565 153.44 82.5985 153.05 82.3457 152.547C82.0957 152.041 81.9707 151.449 81.9707 150.77C81.9707 150.099 82.0957 149.509 82.3457 148.997C82.5985 148.486 82.9508 148.087 83.4025 147.8C83.8571 147.513 84.3883 147.369 84.9963 147.369C85.3656 147.369 85.7235 147.43 86.0701 147.553C86.4167 147.675 86.7278 147.866 87.0034 148.128C87.2789 148.389 87.4963 148.729 87.6554 149.146C87.8145 149.561 87.894 150.065 87.894 150.659V151.111H82.6909V150.156H86.6454C86.6454 149.821 86.5772 149.524 86.4409 149.266C86.3045 149.004 86.1127 148.798 85.8656 148.648C85.6213 148.497 85.3343 148.422 85.0048 148.422C84.6468 148.422 84.3343 148.51 84.0673 148.686C83.8031 148.859 83.5985 149.087 83.4537 149.368C83.3116 149.646 83.2406 149.949 83.2406 150.276V151.021C83.2406 151.459 83.3173 151.831 83.4707 152.138C83.627 152.445 83.8443 152.679 84.1227 152.841C84.4011 153 84.7264 153.08 85.0985 153.08C85.34 153.08 85.5602 153.045 85.7591 152.977C85.9579 152.906 86.1298 152.801 86.2747 152.662C86.4196 152.523 86.5304 152.351 86.6071 152.146L87.813 152.364C87.7164 152.719 87.5431 153.03 87.2931 153.297C87.046 153.561 86.7349 153.767 86.3599 153.915C85.9877 154.06 85.563 154.132 85.0858 154.132ZM90.5819 150.114V154H89.3077V147.455H90.5307V148.52H90.6117C90.7623 148.173 90.998 147.895 91.3191 147.685C91.6429 147.474 92.0506 147.369 92.5421 147.369C92.9881 147.369 93.3787 147.463 93.714 147.651C94.0492 147.835 94.3091 148.111 94.4938 148.477C94.6784 148.844 94.7708 149.297 94.7708 149.837V154H93.4966V149.99C93.4966 149.516 93.373 149.145 93.1259 148.878C92.8787 148.608 92.5392 148.473 92.1074 148.473C91.812 148.473 91.5492 148.537 91.3191 148.665C91.0918 148.793 90.9114 148.98 90.7779 149.227C90.6472 149.472 90.5819 149.767 90.5819 150.114ZM99.2367 154.132C98.6032 154.132 98.0577 153.989 97.6003 153.702C97.1458 153.412 96.7963 153.013 96.552 152.504C96.3077 151.996 96.1855 151.413 96.1855 150.757C96.1855 150.092 96.3105 149.506 96.5605 148.997C96.8105 148.486 97.1628 148.087 97.6174 147.8C98.0719 147.513 98.6074 147.369 99.2239 147.369C99.7211 147.369 100.164 147.462 100.553 147.646C100.943 147.828 101.257 148.084 101.495 148.413C101.737 148.743 101.88 149.128 101.926 149.568H100.686C100.617 149.261 100.461 148.997 100.217 148.776C99.9753 148.554 99.6515 148.443 99.2452 148.443C98.8901 148.443 98.579 148.537 98.312 148.724C98.0478 148.909 97.8418 149.173 97.6941 149.517C97.5463 149.858 97.4725 150.261 97.4725 150.727C97.4725 151.205 97.5449 151.616 97.6898 151.963C97.8347 152.31 98.0392 152.578 98.3034 152.768C98.5705 152.959 98.8844 153.054 99.2452 153.054C99.4867 153.054 99.7054 153.01 99.9015 152.922C100.1 152.831 100.267 152.702 100.4 152.534C100.536 152.366 100.632 152.165 100.686 151.929H101.926C101.88 152.352 101.742 152.73 101.512 153.062C101.282 153.395 100.974 153.656 100.588 153.847C100.204 154.037 99.7537 154.132 99.2367 154.132ZM106.109 154.132C105.464 154.132 104.909 153.994 104.443 153.719C103.98 153.44 103.622 153.05 103.369 152.547C103.119 152.041 102.994 151.449 102.994 150.77C102.994 150.099 103.119 149.509 103.369 148.997C103.622 148.486 103.974 148.087 104.426 147.8C104.881 147.513 105.412 147.369 106.02 147.369C106.389 147.369 106.747 147.43 107.094 147.553C107.44 147.675 107.751 147.866 108.027 148.128C108.302 148.389 108.52 148.729 108.679 149.146C108.838 149.561 108.917 150.065 108.917 150.659V151.111H103.714V150.156H107.669C107.669 149.821 107.601 149.524 107.464 149.266C107.328 149.004 107.136 148.798 106.889 148.648C106.645 148.497 106.358 148.422 106.028 148.422C105.67 148.422 105.358 148.51 105.091 148.686C104.827 148.859 104.622 149.087 104.477 149.368C104.335 149.646 104.264 149.949 104.264 150.276V151.021C104.264 151.459 104.341 151.831 104.494 152.138C104.65 152.445 104.868 152.679 105.146 152.841C105.425 153 105.75 153.08 106.122 153.08C106.363 153.08 106.584 153.045 106.782 152.977C106.981 152.906 107.153 152.801 107.298 152.662C107.443 152.523 107.554 152.351 107.631 152.146L108.836 152.364C108.74 152.719 108.567 153.03 108.317 153.297C108.069 153.561 107.758 153.767 107.383 153.915C107.011 154.06 106.586 154.132 106.109 154.132ZM27.4412 170.132C26.7963 170.132 26.2409 169.994 25.775 169.719C25.312 169.44 24.954 169.05 24.7012 168.547C24.4512 168.041 24.3262 167.449 24.3262 166.77C24.3262 166.099 24.4512 165.509 24.7012 164.997C24.954 164.486 25.3063 164.087 25.758 163.8C26.2125 163.513 26.7438 163.369 27.3517 163.369C27.7211 163.369 28.079 163.43 28.4256 163.553C28.7722 163.675 29.0833 163.866 29.3588 164.128C29.6344 164.389 29.8517 164.729 30.0108 165.146C30.1699 165.561 30.2495 166.065 30.2495 166.659V167.111H25.0463V166.156H29.0009C29.0009 165.821 28.9327 165.524 28.7963 165.266C28.66 165.004 28.4682 164.798 28.2211 164.648C27.9767 164.497 27.6898 164.422 27.3603 164.422C27.0023 164.422 26.6898 164.51 26.4228 164.686C26.1586 164.859 25.954 165.087 25.8091 165.368C25.6671 165.646 25.5961 165.949 25.5961 166.276V167.021C25.5961 167.459 25.6728 167.831 25.8262 168.138C25.9824 168.445 26.1998 168.679 26.4782 168.841C26.7566 169 27.0819 169.08 27.454 169.08C27.6955 169.08 27.9157 169.045 28.1145 168.977C28.3134 168.906 28.4853 168.801 28.6301 168.662C28.775 168.523 28.8858 168.351 28.9625 168.146L30.1685 168.364C30.0719 168.719 29.8986 169.03 29.6486 169.297C29.4015 169.561 29.0904 169.767 28.7154 169.915C28.3432 170.06 27.9185 170.132 27.4412 170.132ZM32.9373 166.114V170H31.6632V163.455H32.8862V164.52H32.9672C33.1177 164.173 33.3535 163.895 33.6745 163.685C33.9984 163.474 34.4061 163.369 34.8975 163.369C35.3436 163.369 35.7342 163.463 36.0694 163.651C36.4047 163.835 36.6646 164.111 36.8493 164.477C37.0339 164.844 37.1262 165.297 37.1262 165.837V170H35.8521V165.99C35.8521 165.516 35.7285 165.145 35.4814 164.878C35.2342 164.608 34.8947 164.473 34.4629 164.473C34.1674 164.473 33.9047 164.537 33.6745 164.665C33.4473 164.793 33.2669 164.98 33.1333 165.227C33.0027 165.472 32.9373 165.767 32.9373 166.114ZM40.1092 166.114V170H38.835V161.273H40.0922V164.52H40.1731C40.3265 164.168 40.5609 163.888 40.8762 163.68C41.1916 163.473 41.6035 163.369 42.112 163.369C42.5609 163.369 42.9529 163.462 43.2882 163.646C43.6262 163.831 43.8876 164.107 44.0723 164.473C44.2598 164.837 44.3535 165.291 44.3535 165.837V170H43.0794V165.99C43.0794 165.51 42.9558 165.138 42.7086 164.874C42.4615 164.607 42.1177 164.473 41.6774 164.473C41.3762 164.473 41.1064 164.537 40.8677 164.665C40.6319 164.793 40.4458 164.98 40.3095 165.227C40.176 165.472 40.1092 165.767 40.1092 166.114ZM47.9586 170.145C47.5439 170.145 47.1689 170.068 46.8336 169.915C46.4984 169.759 46.2328 169.533 46.0368 169.237C45.8436 168.942 45.747 168.58 45.747 168.151C45.747 167.781 45.818 167.477 45.96 167.239C46.1021 167 46.2939 166.811 46.5353 166.672C46.7768 166.533 47.0467 166.428 47.345 166.357C47.6433 166.286 47.9473 166.232 48.2569 166.195C48.649 166.149 48.9672 166.112 49.2115 166.084C49.4558 166.053 49.6333 166.003 49.7441 165.935C49.8549 165.866 49.9103 165.756 49.9103 165.602V165.572C49.9103 165.2 49.8052 164.912 49.595 164.707C49.3876 164.503 49.0779 164.401 48.666 164.401C48.237 164.401 47.899 164.496 47.6518 164.686C47.4075 164.874 47.2385 165.082 47.1447 165.312L45.9473 165.04C46.0893 164.642 46.2967 164.321 46.5694 164.077C46.845 163.83 47.1618 163.651 47.5197 163.54C47.8777 163.426 48.2541 163.369 48.649 163.369C48.9103 163.369 49.1873 163.401 49.4799 163.463C49.7754 163.523 50.051 163.634 50.3066 163.795C50.5652 163.957 50.7768 164.189 50.9416 164.49C51.1064 164.788 51.1887 165.176 51.1887 165.653V170H49.9444V169.105H49.8933C49.8109 169.27 49.6873 169.432 49.5225 169.591C49.3578 169.75 49.1461 169.882 48.8876 169.987C48.6291 170.092 48.3194 170.145 47.9586 170.145ZM48.2356 169.122C48.5879 169.122 48.889 169.053 49.139 168.913C49.3919 168.774 49.5836 168.592 49.7143 168.368C49.8478 168.141 49.9146 167.898 49.9146 167.639V166.795C49.8691 166.841 49.7811 166.884 49.6504 166.923C49.5225 166.96 49.3762 166.993 49.2115 167.021C49.0467 167.047 48.8862 167.071 48.7299 167.094C48.5737 167.114 48.443 167.131 48.3379 167.145C48.0907 167.176 47.8649 167.229 47.6603 167.303C47.4586 167.376 47.2967 167.483 47.1745 167.622C47.0552 167.759 46.9956 167.94 46.9956 168.168C46.9956 168.483 47.112 168.722 47.345 168.884C47.5779 169.043 47.8748 169.122 48.2356 169.122ZM54.16 166.114V170H52.8858V163.455H54.1088V164.52H54.1898C54.3404 164.173 54.5762 163.895 54.8972 163.685C55.2211 163.474 55.6287 163.369 56.1202 163.369C56.5662 163.369 56.9569 163.463 57.2921 163.651C57.6273 163.835 57.8873 164.111 58.0719 164.477C58.2566 164.844 58.3489 165.297 58.3489 165.837V170H57.0748V165.99C57.0748 165.516 56.9512 165.145 56.704 164.878C56.4569 164.608 56.1174 164.473 55.6855 164.473C55.3901 164.473 55.1273 164.537 54.8972 164.665C54.6699 164.793 54.4895 164.98 54.356 165.227C54.2253 165.472 54.16 165.767 54.16 166.114ZM62.8148 170.132C62.1813 170.132 61.6358 169.989 61.1784 169.702C60.7239 169.412 60.3745 169.013 60.1301 168.504C59.8858 167.996 59.7637 167.413 59.7637 166.757C59.7637 166.092 59.8887 165.506 60.1387 164.997C60.3887 164.486 60.7409 164.087 61.1955 163.8C61.65 163.513 62.1855 163.369 62.802 163.369C63.2992 163.369 63.7424 163.462 64.1316 163.646C64.5208 163.828 64.8347 164.084 65.0733 164.413C65.3148 164.743 65.4583 165.128 65.5037 165.568H64.2637C64.1955 165.261 64.0392 164.997 63.7949 164.776C63.5534 164.554 63.2296 164.443 62.8233 164.443C62.4682 164.443 62.1571 164.537 61.8901 164.724C61.6259 164.909 61.4199 165.173 61.2722 165.517C61.1245 165.858 61.0506 166.261 61.0506 166.727C61.0506 167.205 61.123 167.616 61.2679 167.963C61.4128 168.31 61.6174 168.578 61.8816 168.768C62.1486 168.959 62.4625 169.054 62.8233 169.054C63.0648 169.054 63.2836 169.01 63.4796 168.922C63.6784 168.831 63.8446 168.702 63.9782 168.534C64.1145 168.366 64.2097 168.165 64.2637 167.929H65.5037C65.4583 168.352 65.3205 168.73 65.0904 169.062C64.8603 169.395 64.552 169.656 64.1657 169.847C63.7821 170.037 63.3319 170.132 62.8148 170.132ZM69.6873 170.132C69.0424 170.132 68.487 169.994 68.0211 169.719C67.5581 169.44 67.2001 169.05 66.9473 168.547C66.6973 168.041 66.5723 167.449 66.5723 166.77C66.5723 166.099 66.6973 165.509 66.9473 164.997C67.2001 164.486 67.5524 164.087 68.0041 163.8C68.4586 163.513 68.9899 163.369 69.5978 163.369C69.9672 163.369 70.3251 163.43 70.6717 163.553C71.0183 163.675 71.3294 163.866 71.6049 164.128C71.8805 164.389 72.0978 164.729 72.2569 165.146C72.416 165.561 72.4956 166.065 72.4956 166.659V167.111H67.2924V166.156H71.247C71.247 165.821 71.1788 165.524 71.0424 165.266C70.9061 165.004 70.7143 164.798 70.4672 164.648C70.2228 164.497 69.9359 164.422 69.6064 164.422C69.2484 164.422 68.9359 164.51 68.6689 164.686C68.4047 164.859 68.2001 165.087 68.0552 165.368C67.9132 165.646 67.8422 165.949 67.8422 166.276V167.021C67.8422 167.459 67.9189 167.831 68.0723 168.138C68.2285 168.445 68.4458 168.679 68.7243 168.841C69.0027 169 69.3279 169.08 69.7001 169.08C69.9416 169.08 70.1618 169.045 70.3606 168.977C70.5595 168.906 70.7314 168.801 70.8762 168.662C71.0211 168.523 71.1319 168.351 71.2086 168.146L72.4146 168.364C72.318 168.719 72.1447 169.03 71.8947 169.297C71.6475 169.561 71.3365 169.767 70.9615 169.915C70.5893 170.06 70.1646 170.132 69.6873 170.132ZM76.3596 170.128C75.8311 170.128 75.3596 169.993 74.9448 169.723C74.5328 169.45 74.209 169.062 73.9732 168.56C73.7402 168.054 73.6238 167.447 73.6238 166.74C73.6238 166.033 73.7417 165.428 73.9775 164.925C74.2161 164.422 74.5428 164.037 74.9576 163.77C75.3723 163.503 75.8425 163.369 76.3681 163.369C76.7743 163.369 77.101 163.438 77.3482 163.574C77.5982 163.707 77.7914 163.864 77.9277 164.043C78.0669 164.222 78.1749 164.379 78.2516 164.516H78.3283V161.273H79.6025V170H78.3581V168.982H78.2516C78.1749 169.121 78.0641 169.28 77.9192 169.459C77.7772 169.638 77.5811 169.794 77.3311 169.928C77.0811 170.061 76.7573 170.128 76.3596 170.128ZM76.6408 169.041C77.0073 169.041 77.3169 168.945 77.5698 168.751C77.8255 168.555 78.0186 168.284 78.1493 167.938C78.2828 167.591 78.3496 167.187 78.3496 166.727C78.3496 166.273 78.2843 165.875 78.1536 165.534C78.0229 165.193 77.8311 164.928 77.5783 164.737C77.3255 164.547 77.013 164.452 76.6408 164.452C76.2573 164.452 75.9377 164.551 75.682 164.75C75.4263 164.949 75.2331 165.22 75.1025 165.564C74.9746 165.908 74.9107 166.295 74.9107 166.727C74.9107 167.165 74.976 167.558 75.1067 167.908C75.2374 168.257 75.4306 168.534 75.6863 168.739C75.9448 168.94 76.263 169.041 76.6408 169.041ZM87.7118 163.455V164.477H84.013V163.455H87.7118ZM85.0272 170V162.696C85.0272 162.287 85.1167 161.947 85.2956 161.678C85.4746 161.405 85.7118 161.202 86.0073 161.068C86.3027 160.932 86.6238 160.864 86.9703 160.864C87.226 160.864 87.4448 160.885 87.6266 160.928C87.8084 160.967 87.9434 161.004 88.0314 161.038L87.7331 162.07C87.6735 162.053 87.5968 162.033 87.503 162.01C87.4093 161.984 87.2956 161.972 87.1621 161.972C86.8525 161.972 86.6309 162.048 86.4973 162.202C86.3667 162.355 86.3013 162.577 86.3013 162.866V170H85.0272ZM91.5897 170.132C90.9448 170.132 90.3894 169.994 89.9235 169.719C89.4604 169.44 89.1025 169.05 88.8496 168.547C88.5996 168.041 88.4746 167.449 88.4746 166.77C88.4746 166.099 88.5996 165.509 88.8496 164.997C89.1025 164.486 89.4547 164.087 89.9064 163.8C90.361 163.513 90.8922 163.369 91.5002 163.369C91.8695 163.369 92.2275 163.43 92.574 163.553C92.9206 163.675 93.2317 163.866 93.5073 164.128C93.7828 164.389 94.0002 164.729 94.1593 165.146C94.3184 165.561 94.3979 166.065 94.3979 166.659V167.111H89.1948V166.156H93.1493C93.1493 165.821 93.0811 165.524 92.9448 165.266C92.8084 165.004 92.6167 164.798 92.3695 164.648C92.1252 164.497 91.8382 164.422 91.5087 164.422C91.1507 164.422 90.8382 164.51 90.5712 164.686C90.307 164.859 90.1025 165.087 89.9576 165.368C89.8155 165.646 89.7445 165.949 89.7445 166.276V167.021C89.7445 167.459 89.8212 167.831 89.9746 168.138C90.1309 168.445 90.3482 168.679 90.6266 168.841C90.905 169 91.2303 169.08 91.6025 169.08C91.8439 169.08 92.0641 169.045 92.263 168.977C92.4618 168.906 92.6337 168.801 92.7786 168.662C92.9235 168.523 93.0343 168.351 93.111 168.146L94.3169 168.364C94.2203 168.719 94.0471 169.03 93.7971 169.297C93.5499 169.561 93.2388 169.767 92.8638 169.915C92.4917 170.06 92.0669 170.132 91.5897 170.132ZM97.7164 170.145C97.3017 170.145 96.9267 170.068 96.5914 169.915C96.2562 169.759 95.9906 169.533 95.7946 169.237C95.6014 168.942 95.5048 168.58 95.5048 168.151C95.5048 167.781 95.5758 167.477 95.7179 167.239C95.8599 167 96.0517 166.811 96.2931 166.672C96.5346 166.533 96.8045 166.428 97.1028 166.357C97.4011 166.286 97.7051 166.232 98.0147 166.195C98.4068 166.149 98.725 166.112 98.9693 166.084C99.2136 166.053 99.3912 166.003 99.502 165.935C99.6127 165.866 99.6681 165.756 99.6681 165.602V165.572C99.6681 165.2 99.563 164.912 99.3528 164.707C99.1454 164.503 98.8358 164.401 98.4238 164.401C97.9949 164.401 97.6568 164.496 97.4096 164.686C97.1653 164.874 96.9963 165.082 96.9025 165.312L95.7051 165.04C95.8471 164.642 96.0545 164.321 96.3272 164.077C96.6028 163.83 96.9196 163.651 97.2775 163.54C97.6355 163.426 98.0119 163.369 98.4068 163.369C98.6681 163.369 98.9451 163.401 99.2377 163.463C99.5332 163.523 99.8088 163.634 100.064 163.795C100.323 163.957 100.535 164.189 100.699 164.49C100.864 164.788 100.947 165.176 100.947 165.653V170H99.7022V169.105H99.6511C99.5687 169.27 99.4451 169.432 99.2804 169.591C99.1156 169.75 98.9039 169.882 98.6454 169.987C98.3869 170.092 98.0772 170.145 97.7164 170.145ZM97.9934 169.122C98.3457 169.122 98.6468 169.053 98.8968 168.913C99.1497 168.774 99.3414 168.592 99.4721 168.368C99.6056 168.141 99.6724 167.898 99.6724 167.639V166.795C99.627 166.841 99.5389 166.884 99.4082 166.923C99.2804 166.96 99.1341 166.993 98.9693 167.021C98.8045 167.047 98.644 167.071 98.4877 167.094C98.3315 167.114 98.2008 167.131 98.0957 167.145C97.8485 167.176 97.6227 167.229 97.4181 167.303C97.2164 167.376 97.0545 167.483 96.9324 167.622C96.813 167.759 96.7534 167.94 96.7534 168.168C96.7534 168.483 96.8699 168.722 97.1028 168.884C97.3358 169.043 97.6326 169.122 97.9934 169.122ZM105.699 163.455V164.477H102.124V163.455H105.699ZM103.083 161.886H104.357V168.078C104.357 168.325 104.394 168.511 104.468 168.636C104.541 168.759 104.637 168.842 104.753 168.888C104.872 168.93 105.002 168.952 105.141 168.952C105.243 168.952 105.333 168.945 105.409 168.93C105.486 168.916 105.546 168.905 105.588 168.896L105.818 169.949C105.744 169.977 105.639 170.006 105.503 170.034C105.367 170.065 105.196 170.082 104.992 170.085C104.656 170.091 104.344 170.031 104.054 169.906C103.764 169.781 103.53 169.588 103.351 169.327C103.172 169.065 103.083 168.737 103.083 168.342V161.886ZM111.255 167.286V163.455H112.533V170H111.28V168.866H111.212C111.062 169.216 110.82 169.507 110.488 169.74C110.158 169.97 109.748 170.085 109.256 170.085C108.836 170.085 108.464 169.993 108.14 169.808C107.819 169.621 107.566 169.344 107.381 168.977C107.199 168.611 107.108 168.158 107.108 167.618V163.455H108.383V167.464C108.383 167.911 108.506 168.266 108.753 168.53C109.001 168.794 109.322 168.926 109.716 168.926C109.955 168.926 110.192 168.866 110.428 168.747C110.667 168.628 110.864 168.447 111.02 168.206C111.18 167.964 111.258 167.658 111.255 167.286ZM114.245 170V163.455H115.477V164.494H115.545C115.664 164.142 115.874 163.865 116.176 163.663C116.48 163.459 116.823 163.357 117.207 163.357C117.286 163.357 117.38 163.359 117.488 163.365C117.599 163.371 117.686 163.378 117.748 163.386V164.605C117.697 164.591 117.606 164.575 117.475 164.558C117.345 164.538 117.214 164.528 117.083 164.528C116.782 164.528 116.514 164.592 116.278 164.72C116.045 164.845 115.86 165.02 115.724 165.244C115.588 165.466 115.519 165.719 115.519 166.003V170H114.245ZM121.437 170.132C120.792 170.132 120.237 169.994 119.771 169.719C119.308 169.44 118.95 169.05 118.697 168.547C118.447 168.041 118.322 167.449 118.322 166.77C118.322 166.099 118.447 165.509 118.697 164.997C118.95 164.486 119.302 164.087 119.754 163.8C120.209 163.513 120.74 163.369 121.348 163.369C121.717 163.369 122.075 163.43 122.422 163.553C122.768 163.675 123.079 163.866 123.355 164.128C123.631 164.389 123.848 164.729 124.007 165.146C124.166 165.561 124.246 166.065 124.246 166.659V167.111H119.042V166.156H122.997C122.997 165.821 122.929 165.524 122.792 165.266C122.656 165.004 122.464 164.798 122.217 164.648C121.973 164.497 121.686 164.422 121.356 164.422C120.998 164.422 120.686 164.51 120.419 164.686C120.155 164.859 119.95 165.087 119.805 165.368C119.663 165.646 119.592 165.949 119.592 166.276V167.021C119.592 167.459 119.669 167.831 119.822 168.138C119.979 168.445 120.196 168.679 120.474 168.841C120.753 169 121.078 169.08 121.45 169.08C121.692 169.08 121.912 169.045 122.111 168.977C122.309 168.906 122.481 168.801 122.626 168.662C122.771 168.523 122.882 168.351 122.959 168.146L124.165 168.364C124.068 168.719 123.895 169.03 123.645 169.297C123.398 169.561 123.086 169.767 122.711 169.915C122.339 170.06 121.915 170.132 121.437 170.132ZM130.564 165.053L129.409 165.257C129.361 165.109 129.284 164.969 129.179 164.835C129.077 164.702 128.938 164.592 128.762 164.507C128.585 164.422 128.365 164.379 128.101 164.379C127.74 164.379 127.439 164.46 127.198 164.622C126.956 164.781 126.835 164.987 126.835 165.24C126.835 165.459 126.916 165.635 127.078 165.768C127.24 165.902 127.502 166.011 127.862 166.097L128.902 166.335C129.504 166.474 129.953 166.689 130.249 166.979C130.544 167.268 130.692 167.645 130.692 168.108C130.692 168.5 130.578 168.849 130.351 169.156C130.127 169.46 129.813 169.699 129.409 169.872C129.009 170.045 128.544 170.132 128.016 170.132C127.283 170.132 126.685 169.976 126.222 169.663C125.759 169.348 125.475 168.901 125.369 168.321L126.601 168.134C126.678 168.455 126.835 168.697 127.074 168.862C127.313 169.024 127.624 169.105 128.007 169.105C128.425 169.105 128.759 169.018 129.009 168.845C129.259 168.669 129.384 168.455 129.384 168.202C129.384 167.997 129.307 167.825 129.154 167.686C129.003 167.547 128.771 167.442 128.459 167.371L127.351 167.128C126.74 166.989 126.289 166.767 125.996 166.463C125.706 166.159 125.561 165.774 125.561 165.308C125.561 164.922 125.669 164.584 125.885 164.294C126.101 164.004 126.399 163.778 126.78 163.616C127.161 163.452 127.597 163.369 128.088 163.369C128.796 163.369 129.352 163.523 129.759 163.83C130.165 164.134 130.433 164.541 130.564 165.053ZM35.4254 186.145C35.0107 186.145 34.6357 186.068 34.3004 185.915C33.9652 185.759 33.6996 185.533 33.5036 185.237C33.3104 184.942 33.2138 184.58 33.2138 184.151C33.2138 183.781 33.2848 183.477 33.4268 183.239C33.5689 183 33.7607 182.811 34.0021 182.672C34.2436 182.533 34.5135 182.428 34.8118 182.357C35.1101 182.286 35.4141 182.232 35.7237 182.195C36.1158 182.149 36.4339 182.112 36.6783 182.084C36.9226 182.053 37.1001 182.003 37.2109 181.935C37.3217 181.866 37.3771 181.756 37.3771 181.602V181.572C37.3771 181.2 37.272 180.912 37.0618 180.707C36.8544 180.503 36.5447 180.401 36.1328 180.401C35.7038 180.401 35.3658 180.496 35.1186 180.686C34.8743 180.874 34.7053 181.082 34.6115 181.312L33.4141 181.04C33.5561 180.642 33.7635 180.321 34.0362 180.077C34.3118 179.83 34.6286 179.651 34.9865 179.54C35.3445 179.426 35.7209 179.369 36.1158 179.369C36.3771 179.369 36.6541 179.401 36.9467 179.463C37.2422 179.523 37.5178 179.634 37.7734 179.795C38.032 179.957 38.2436 180.189 38.4084 180.49C38.5732 180.788 38.6555 181.176 38.6555 181.653V186H37.4112V185.105H37.3601C37.2777 185.27 37.1541 185.432 36.9893 185.591C36.8246 185.75 36.6129 185.882 36.3544 185.987C36.0959 186.092 35.7862 186.145 35.4254 186.145ZM35.7024 185.122C36.0547 185.122 36.3558 185.053 36.6058 184.913C36.8587 184.774 37.0504 184.592 37.1811 184.368C37.3146 184.141 37.3814 183.898 37.3814 183.639V182.795C37.3359 182.841 37.2479 182.884 37.1172 182.923C36.9893 182.96 36.843 182.993 36.6783 183.021C36.5135 183.047 36.353 183.071 36.1967 183.094C36.0405 183.114 35.9098 183.131 35.8047 183.145C35.5575 183.176 35.3317 183.229 35.1271 183.303C34.9254 183.376 34.7635 183.483 34.6413 183.622C34.522 183.759 34.4624 183.94 34.4624 184.168C34.4624 184.483 34.5788 184.722 34.8118 184.884C35.0447 185.043 35.3416 185.122 35.7024 185.122ZM41.6268 182.114V186H40.3526V179.455H41.5756V180.52H41.6566C41.8072 180.173 42.043 179.895 42.364 179.685C42.6879 179.474 43.0955 179.369 43.587 179.369C44.033 179.369 44.4237 179.463 44.7589 179.651C45.0941 179.835 45.354 180.111 45.5387 180.477C45.7234 180.844 45.8157 181.297 45.8157 181.837V186H44.5415V181.99C44.5415 181.516 44.418 181.145 44.1708 180.878C43.9237 180.608 43.5842 180.473 43.1523 180.473C42.8569 180.473 42.5941 180.537 42.364 180.665C42.1367 180.793 41.9563 180.98 41.8228 181.227C41.6921 181.472 41.6268 181.767 41.6268 182.114ZM49.9748 186.128C49.4464 186.128 48.9748 185.993 48.56 185.723C48.1481 185.45 47.8242 185.062 47.5884 184.56C47.3555 184.054 47.239 183.447 47.239 182.74C47.239 182.033 47.3569 181.428 47.5927 180.925C47.8313 180.422 48.158 180.037 48.5728 179.77C48.9876 179.503 49.4577 179.369 49.9833 179.369C50.3896 179.369 50.7163 179.438 50.9634 179.574C51.2134 179.707 51.4066 179.864 51.543 180.043C51.6822 180.222 51.7901 180.379 51.8668 180.516H51.9435V177.273H53.2177V186H51.9734V184.982H51.8668C51.7901 185.121 51.6793 185.28 51.5344 185.459C51.3924 185.638 51.1964 185.794 50.9464 185.928C50.6964 186.061 50.3725 186.128 49.9748 186.128ZM50.256 185.041C50.6225 185.041 50.9322 184.945 51.185 184.751C51.4407 184.555 51.6339 184.284 51.7646 183.938C51.8981 183.591 51.9648 183.187 51.9648 182.727C51.9648 182.273 51.8995 181.875 51.7688 181.534C51.6381 181.193 51.4464 180.928 51.1935 180.737C50.9407 180.547 50.6282 180.452 50.256 180.452C49.8725 180.452 49.5529 180.551 49.2972 180.75C49.0415 180.949 48.8484 181.22 48.7177 181.564C48.5898 181.908 48.5259 182.295 48.5259 182.727C48.5259 183.165 48.5913 183.558 48.7219 183.908C48.8526 184.257 49.0458 184.534 49.3015 184.739C49.56 184.94 49.8782 185.041 50.256 185.041ZM60.1168 186.145C59.7021 186.145 59.3271 186.068 58.9918 185.915C58.6566 185.759 58.391 185.533 58.195 185.237C58.0018 184.942 57.9052 184.58 57.9052 184.151C57.9052 183.781 57.9762 183.477 58.1183 183.239C58.2603 183 58.4521 182.811 58.6935 182.672C58.935 182.533 59.2049 182.428 59.5032 182.357C59.8015 182.286 60.1055 182.232 60.4151 182.195C60.8072 182.149 61.1254 182.112 61.3697 182.084C61.614 182.053 61.7915 182.003 61.9023 181.935C62.0131 181.866 62.0685 181.756 62.0685 181.602V181.572C62.0685 181.2 61.9634 180.912 61.7532 180.707C61.5458 180.503 61.2362 180.401 60.8242 180.401C60.3952 180.401 60.0572 180.496 59.81 180.686C59.5657 180.874 59.3967 181.082 59.3029 181.312L58.1055 181.04C58.2475 180.642 58.4549 180.321 58.7276 180.077C59.0032 179.83 59.32 179.651 59.6779 179.54C60.0359 179.426 60.4123 179.369 60.8072 179.369C61.0685 179.369 61.3455 179.401 61.6381 179.463C61.9336 179.523 62.2092 179.634 62.4648 179.795C62.7234 179.957 62.935 180.189 63.0998 180.49C63.2646 180.788 63.3469 181.176 63.3469 181.653V186H62.1026V185.105H62.0515C61.9691 185.27 61.8455 185.432 61.6808 185.591C61.516 185.75 61.3043 185.882 61.0458 185.987C60.7873 186.092 60.4776 186.145 60.1168 186.145ZM60.3938 185.122C60.7461 185.122 61.0472 185.053 61.2972 184.913C61.5501 184.774 61.7418 184.592 61.8725 184.368C62.006 184.141 62.0728 183.898 62.0728 183.639V182.795C62.0273 182.841 61.9393 182.884 61.8086 182.923C61.6808 182.96 61.5344 182.993 61.3697 183.021C61.2049 183.047 61.0444 183.071 60.8881 183.094C60.7319 183.114 60.6012 183.131 60.4961 183.145C60.2489 183.176 60.0231 183.229 59.8185 183.303C59.6168 183.376 59.4549 183.483 59.3327 183.622C59.2134 183.759 59.1538 183.94 59.1538 184.168C59.1538 184.483 59.2702 184.722 59.5032 184.884C59.7362 185.043 60.033 185.122 60.3938 185.122ZM73.1246 181.053L71.9698 181.257C71.9215 181.109 71.8448 180.969 71.7397 180.835C71.6374 180.702 71.4982 180.592 71.3221 180.507C71.146 180.422 70.9258 180.379 70.6616 180.379C70.3008 180.379 69.9996 180.46 69.7582 180.622C69.5167 180.781 69.396 180.987 69.396 181.24C69.396 181.459 69.4769 181.635 69.6388 181.768C69.8008 181.902 70.0621 182.011 70.4229 182.097L71.4627 182.335C72.065 182.474 72.5138 182.689 72.8093 182.979C73.1048 183.268 73.2525 183.645 73.2525 184.108C73.2525 184.5 73.1388 184.849 72.9116 185.156C72.6871 185.46 72.3732 185.699 71.9698 185.872C71.5692 186.045 71.1048 186.132 70.5763 186.132C69.8434 186.132 69.2454 185.976 68.7823 185.663C68.3192 185.348 68.0352 184.901 67.93 184.321L69.1616 184.134C69.2383 184.455 69.396 184.697 69.6346 184.862C69.8732 185.024 70.1843 185.105 70.5678 185.105C70.9854 185.105 71.3192 185.018 71.5692 184.845C71.8192 184.669 71.9442 184.455 71.9442 184.202C71.9442 183.997 71.8675 183.825 71.7141 183.686C71.5636 183.547 71.332 183.442 71.0195 183.371L69.9116 183.128C69.3008 182.989 68.8491 182.767 68.5565 182.463C68.2667 182.159 68.1218 181.774 68.1218 181.308C68.1218 180.922 68.2298 180.584 68.4457 180.294C68.6616 180.004 68.9599 179.778 69.3406 179.616C69.7212 179.452 70.1573 179.369 70.6488 179.369C71.3562 179.369 71.913 179.523 72.3192 179.83C72.7255 180.134 72.994 180.541 73.1246 181.053ZM74.6534 186V179.455H75.8764V180.52H75.9574C76.0938 180.159 76.3168 179.878 76.6264 179.676C76.9361 179.472 77.3068 179.369 77.7386 179.369C78.1761 179.369 78.5426 179.472 78.8381 179.676C79.1364 179.881 79.3565 180.162 79.4986 180.52H79.5668C79.723 180.17 79.9716 179.892 80.3125 179.685C80.6534 179.474 81.0597 179.369 81.5312 179.369C82.125 179.369 82.6094 179.555 82.9844 179.928C83.3622 180.3 83.5511 180.861 83.5511 181.611V186H82.277V181.73C82.277 181.287 82.1563 180.966 81.9148 180.767C81.6733 180.568 81.3849 180.469 81.0497 180.469C80.6349 180.469 80.3125 180.597 80.0824 180.852C79.8523 181.105 79.7372 181.43 79.7372 181.828V186H78.4673V181.649C78.4673 181.294 78.3565 181.009 78.1349 180.793C77.9134 180.577 77.625 180.469 77.2699 180.469C77.0284 180.469 76.8054 180.533 76.6009 180.661C76.3991 180.786 76.2358 180.96 76.1108 181.185C75.9886 181.409 75.9276 181.669 75.9276 181.964V186H74.6534ZM88.016 186.132C87.4023 186.132 86.8668 185.991 86.4094 185.71C85.9521 185.429 85.5969 185.036 85.3441 184.53C85.0913 184.024 84.9648 183.433 84.9648 182.757C84.9648 182.078 85.0913 181.484 85.3441 180.976C85.5969 180.467 85.9521 180.072 86.4094 179.791C86.8668 179.51 87.4023 179.369 88.016 179.369C88.6296 179.369 89.1651 179.51 89.6225 179.791C90.0799 180.072 90.435 180.467 90.6879 180.976C90.9407 181.484 91.0671 182.078 91.0671 182.757C91.0671 183.433 90.9407 184.024 90.6879 184.53C90.435 185.036 90.0799 185.429 89.6225 185.71C89.1651 185.991 88.6296 186.132 88.016 186.132ZM88.0202 185.062C88.418 185.062 88.7475 184.957 89.0089 184.747C89.2702 184.537 89.4634 184.257 89.5884 183.908C89.7163 183.558 89.7802 183.173 89.7802 182.753C89.7802 182.335 89.7163 181.952 89.5884 181.602C89.4634 181.25 89.2702 180.967 89.0089 180.754C88.7475 180.541 88.418 180.435 88.0202 180.435C87.6197 180.435 87.2873 180.541 87.0231 180.754C86.7617 180.967 86.5671 181.25 86.4393 181.602C86.3143 181.952 86.2518 182.335 86.2518 182.753C86.2518 183.173 86.3143 183.558 86.4393 183.908C86.5671 184.257 86.7617 184.537 87.0231 184.747C87.2873 184.957 87.6197 185.062 88.0202 185.062ZM95.2464 186.132C94.6328 186.132 94.0973 185.991 93.6399 185.71C93.1825 185.429 92.8274 185.036 92.5746 184.53C92.3217 184.024 92.1953 183.433 92.1953 182.757C92.1953 182.078 92.3217 181.484 92.5746 180.976C92.8274 180.467 93.1825 180.072 93.6399 179.791C94.0973 179.51 94.6328 179.369 95.2464 179.369C95.8601 179.369 96.3956 179.51 96.853 179.791C97.3104 180.072 97.6655 180.467 97.9183 180.976C98.1712 181.484 98.2976 182.078 98.2976 182.757C98.2976 183.433 98.1712 184.024 97.9183 184.53C97.6655 185.036 97.3104 185.429 96.853 185.71C96.3956 185.991 95.8601 186.132 95.2464 186.132ZM95.2507 185.062C95.6484 185.062 95.978 184.957 96.2393 184.747C96.5007 184.537 96.6939 184.257 96.8189 183.908C96.9467 183.558 97.0107 183.173 97.0107 182.753C97.0107 182.335 96.9467 181.952 96.8189 181.602C96.6939 181.25 96.5007 180.967 96.2393 180.754C95.978 180.541 95.6484 180.435 95.2507 180.435C94.8501 180.435 94.5178 180.541 94.2536 180.754C93.9922 180.967 93.7976 181.25 93.6697 181.602C93.5447 181.952 93.4822 182.335 93.4822 182.753C93.4822 183.173 93.5447 183.558 93.6697 183.908C93.7976 184.257 93.9922 184.537 94.2536 184.747C94.5178 184.957 94.8501 185.062 95.2507 185.062ZM102.775 179.455V180.477H99.1999V179.455H102.775ZM100.159 177.886H101.433V184.078C101.433 184.325 101.47 184.511 101.544 184.636C101.618 184.759 101.713 184.842 101.829 184.888C101.949 184.93 102.078 184.952 102.217 184.952C102.319 184.952 102.409 184.945 102.485 184.93C102.562 184.916 102.622 184.905 102.664 184.896L102.895 185.949C102.821 185.977 102.716 186.006 102.579 186.034C102.443 186.065 102.272 186.082 102.068 186.085C101.733 186.091 101.42 186.031 101.13 185.906C100.841 185.781 100.606 185.588 100.427 185.327C100.248 185.065 100.159 184.737 100.159 184.342V177.886ZM105.599 182.114V186H104.325V177.273H105.582V180.52H105.663C105.817 180.168 106.051 179.888 106.366 179.68C106.682 179.473 107.094 179.369 107.602 179.369C108.051 179.369 108.443 179.462 108.778 179.646C109.116 179.831 109.378 180.107 109.562 180.473C109.75 180.837 109.844 181.291 109.844 181.837V186H108.57V181.99C108.57 181.51 108.446 181.138 108.199 180.874C107.952 180.607 107.608 180.473 107.168 180.473C106.866 180.473 106.597 180.537 106.358 180.665C106.122 180.793 105.936 180.98 105.8 181.227C105.666 181.472 105.599 181.767 105.599 182.114ZM114.365 186.132C113.72 186.132 113.165 185.994 112.699 185.719C112.236 185.44 111.878 185.05 111.625 184.547C111.375 184.041 111.25 183.449 111.25 182.77C111.25 182.099 111.375 181.509 111.625 180.997C111.878 180.486 112.23 180.087 112.682 179.8C113.136 179.513 113.668 179.369 114.276 179.369C114.645 179.369 115.003 179.43 115.349 179.553C115.696 179.675 116.007 179.866 116.283 180.128C116.558 180.389 116.776 180.729 116.935 181.146C117.094 181.561 117.173 182.065 117.173 182.659V183.111H111.97V182.156H115.925C115.925 181.821 115.857 181.524 115.72 181.266C115.584 181.004 115.392 180.798 115.145 180.648C114.901 180.497 114.614 180.422 114.284 180.422C113.926 180.422 113.614 180.51 113.347 180.686C113.082 180.859 112.878 181.087 112.733 181.368C112.591 181.646 112.52 181.949 112.52 182.276V183.021C112.52 183.459 112.597 183.831 112.75 184.138C112.906 184.445 113.124 184.679 113.402 184.841C113.68 185 114.006 185.08 114.378 185.08C114.619 185.08 114.839 185.045 115.038 184.977C115.237 184.906 115.409 184.801 115.554 184.662C115.699 184.523 115.81 184.351 115.886 184.146L117.092 184.364C116.996 184.719 116.822 185.03 116.572 185.297C116.325 185.561 116.014 185.767 115.639 185.915C115.267 186.06 114.842 186.132 114.365 186.132ZM118.587 186V179.455H119.819V180.494H119.887C120.006 180.142 120.216 179.865 120.517 179.663C120.821 179.459 121.165 179.357 121.549 179.357C121.628 179.357 121.722 179.359 121.83 179.365C121.941 179.371 122.027 179.378 122.09 179.386V180.605C122.039 180.591 121.948 180.575 121.817 180.558C121.686 180.538 121.556 180.528 121.425 180.528C121.124 180.528 120.855 180.592 120.62 180.72C120.387 180.845 120.202 181.02 120.066 181.244C119.929 181.466 119.861 181.719 119.861 182.003V186H118.587ZM27.6378 202V195.455H28.9119V202H27.6378ZM28.2812 194.445C28.0597 194.445 27.8693 194.371 27.7102 194.223C27.554 194.072 27.4759 193.893 27.4759 193.686C27.4759 193.476 27.554 193.297 27.7102 193.149C27.8693 192.999 28.0597 192.923 28.2812 192.923C28.5028 192.923 28.6918 192.999 28.848 193.149C29.0071 193.297 29.0866 193.476 29.0866 193.686C29.0866 193.893 29.0071 194.072 28.848 194.223C28.6918 194.371 28.5028 194.445 28.2812 194.445ZM31.9002 198.114V202H30.6261V195.455H31.8491V196.52H31.93C32.0806 196.173 32.3164 195.895 32.6374 195.685C32.9613 195.474 33.369 195.369 33.8604 195.369C34.3065 195.369 34.6971 195.463 35.0323 195.651C35.3675 195.835 35.6275 196.111 35.8121 196.477C35.9968 196.844 36.0891 197.297 36.0891 197.837V202H34.815V197.99C34.815 197.516 34.6914 197.145 34.4442 196.878C34.1971 196.608 33.8576 196.473 33.4258 196.473C33.1303 196.473 32.8675 196.537 32.6374 196.665C32.4102 196.793 32.2298 196.98 32.0962 197.227C31.9656 197.472 31.9002 197.767 31.9002 198.114ZM40.8533 195.455V196.477H37.2781V195.455H40.8533ZM38.2369 193.886H39.511V200.078C39.511 200.325 39.5479 200.511 39.6218 200.636C39.6957 200.759 39.7908 200.842 39.9073 200.888C40.0266 200.93 40.1559 200.952 40.2951 200.952C40.3974 200.952 40.4869 200.945 40.5636 200.93C40.6403 200.916 40.6999 200.905 40.7425 200.896L40.9727 201.949C40.8988 201.977 40.7937 202.006 40.6573 202.034C40.521 202.065 40.3505 202.082 40.146 202.085C39.8107 202.091 39.4982 202.031 39.2085 201.906C38.9187 201.781 38.6843 201.588 38.5053 201.327C38.3263 201.065 38.2369 200.737 38.2369 200.342V193.886ZM45.0135 202.132C44.3686 202.132 43.8132 201.994 43.3473 201.719C42.8842 201.44 42.5263 201.05 42.2734 200.547C42.0234 200.041 41.8984 199.449 41.8984 198.77C41.8984 198.099 42.0234 197.509 42.2734 196.997C42.5263 196.486 42.8786 196.087 43.3303 195.8C43.7848 195.513 44.3161 195.369 44.924 195.369C45.2933 195.369 45.6513 195.43 45.9979 195.553C46.3445 195.675 46.6555 195.866 46.9311 196.128C47.2067 196.389 47.424 196.729 47.5831 197.146C47.7422 197.561 47.8217 198.065 47.8217 198.659V199.111H42.6186V198.156H46.5732C46.5732 197.821 46.505 197.524 46.3686 197.266C46.2322 197.004 46.0405 196.798 45.7933 196.648C45.549 196.497 45.2621 196.422 44.9325 196.422C44.5746 196.422 44.2621 196.51 43.995 196.686C43.7308 196.859 43.5263 197.087 43.3814 197.368C43.2393 197.646 43.1683 197.949 43.1683 198.276V199.021C43.1683 199.459 43.245 199.831 43.3984 200.138C43.5547 200.445 43.772 200.679 44.0504 200.841C44.3288 201 44.6541 201.08 45.0263 201.08C45.2678 201.08 45.4879 201.045 45.6868 200.977C45.8857 200.906 46.0575 200.801 46.2024 200.662C46.3473 200.523 46.4581 200.351 46.5348 200.146L47.7408 200.364C47.6442 200.719 47.4709 201.03 47.2209 201.297C46.9737 201.561 46.6626 201.767 46.2876 201.915C45.9155 202.06 45.4908 202.132 45.0135 202.132ZM49.2354 202V195.455H50.467V196.494H50.5352C50.6545 196.142 50.8647 195.865 51.1658 195.663C51.4698 195.459 51.8136 195.357 52.1971 195.357C52.2766 195.357 52.3704 195.359 52.4783 195.365C52.5891 195.371 52.6758 195.378 52.7383 195.386V196.605C52.6871 196.591 52.5962 196.575 52.4656 196.558C52.3349 196.538 52.2042 196.528 52.0735 196.528C51.7724 196.528 51.5039 196.592 51.2681 196.72C51.0352 196.845 50.8505 197.02 50.7141 197.244C50.5778 197.466 50.5096 197.719 50.5096 198.003V202H49.2354ZM57.3427 195.455V196.477H53.6438V195.455H57.3427ZM54.658 202V194.696C54.658 194.287 54.7475 193.947 54.9265 193.678C55.1055 193.405 55.3427 193.202 55.6381 193.068C55.9336 192.932 56.2546 192.864 56.6012 192.864C56.8569 192.864 57.0756 192.885 57.2575 192.928C57.4393 192.967 57.5742 193.004 57.6623 193.038L57.364 194.07C57.3043 194.053 57.2276 194.033 57.1339 194.01C57.0401 193.984 56.9265 193.972 56.793 193.972C56.4833 193.972 56.2617 194.048 56.1282 194.202C55.9975 194.355 55.9322 194.577 55.9322 194.866V202H54.658ZM60.3629 202.145C59.9482 202.145 59.5732 202.068 59.2379 201.915C58.9027 201.759 58.6371 201.533 58.4411 201.237C58.2479 200.942 58.1513 200.58 58.1513 200.151C58.1513 199.781 58.2223 199.477 58.3643 199.239C58.5064 199 58.6982 198.811 58.9396 198.672C59.1811 198.533 59.451 198.428 59.7493 198.357C60.0476 198.286 60.3516 198.232 60.6612 198.195C61.0533 198.149 61.3714 198.112 61.6158 198.084C61.8601 198.053 62.0376 198.003 62.1484 197.935C62.2592 197.866 62.3146 197.756 62.3146 197.602V197.572C62.3146 197.2 62.2095 196.912 61.9993 196.707C61.7919 196.503 61.4822 196.401 61.0703 196.401C60.6413 196.401 60.3033 196.496 60.0561 196.686C59.8118 196.874 59.6428 197.082 59.549 197.312L58.3516 197.04C58.4936 196.642 58.701 196.321 58.9737 196.077C59.2493 195.83 59.5661 195.651 59.924 195.54C60.282 195.426 60.6584 195.369 61.0533 195.369C61.3146 195.369 61.5916 195.401 61.8842 195.463C62.1797 195.523 62.4553 195.634 62.7109 195.795C62.9695 195.957 63.1811 196.189 63.3459 196.49C63.5107 196.788 63.593 197.176 63.593 197.653V202H62.3487V201.105H62.2976C62.2152 201.27 62.0916 201.432 61.9268 201.591C61.7621 201.75 61.5504 201.882 61.2919 201.987C61.0334 202.092 60.7237 202.145 60.3629 202.145ZM60.6399 201.122C60.9922 201.122 61.2933 201.053 61.5433 200.913C61.7962 200.774 61.9879 200.592 62.1186 200.368C62.2521 200.141 62.3189 199.898 62.3189 199.639V198.795C62.2734 198.841 62.1854 198.884 62.0547 198.923C61.9268 198.96 61.7805 198.993 61.6158 199.021C61.451 199.047 61.2905 199.071 61.1342 199.094C60.978 199.114 60.8473 199.131 60.7422 199.145C60.495 199.176 60.2692 199.229 60.0646 199.303C59.8629 199.376 59.701 199.483 59.5788 199.622C59.4595 199.759 59.3999 199.94 59.3999 200.168C59.3999 200.483 59.5163 200.722 59.7493 200.884C59.9822 201.043 60.2791 201.122 60.6399 201.122ZM68.0472 202.132C67.4137 202.132 66.8683 201.989 66.4109 201.702C65.9563 201.412 65.6069 201.013 65.3626 200.504C65.1183 199.996 64.9961 199.413 64.9961 198.757C64.9961 198.092 65.1211 197.506 65.3711 196.997C65.6211 196.486 65.9734 196.087 66.4279 195.8C66.8825 195.513 67.418 195.369 68.0344 195.369C68.5316 195.369 68.9748 195.462 69.364 195.646C69.7532 195.828 70.0671 196.084 70.3058 196.413C70.5472 196.743 70.6907 197.128 70.7362 197.568H69.4961C69.4279 197.261 69.2717 196.997 69.0273 196.776C68.7859 196.554 68.462 196.443 68.0558 196.443C67.7006 196.443 67.3896 196.537 67.1225 196.724C66.8583 196.909 66.6523 197.173 66.5046 197.517C66.3569 197.858 66.283 198.261 66.283 198.727C66.283 199.205 66.3555 199.616 66.5004 199.963C66.6452 200.31 66.8498 200.578 67.114 200.768C67.381 200.959 67.695 201.054 68.0558 201.054C68.2972 201.054 68.516 201.01 68.712 200.922C68.9109 200.831 69.0771 200.702 69.2106 200.534C69.3469 200.366 69.4421 200.165 69.4961 199.929H70.7362C70.6907 200.352 70.5529 200.73 70.3228 201.062C70.0927 201.395 69.7844 201.656 69.3981 201.847C69.0146 202.037 68.5643 202.132 68.0472 202.132ZM74.9197 202.132C74.2749 202.132 73.7195 201.994 73.2536 201.719C72.7905 201.44 72.4325 201.05 72.1797 200.547C71.9297 200.041 71.8047 199.449 71.8047 198.77C71.8047 198.099 71.9297 197.509 72.1797 196.997C72.4325 196.486 72.7848 196.087 73.2365 195.8C73.6911 195.513 74.2223 195.369 74.8303 195.369C75.1996 195.369 75.5575 195.43 75.9041 195.553C76.2507 195.675 76.5618 195.866 76.8374 196.128C77.1129 196.389 77.3303 196.729 77.4893 197.146C77.6484 197.561 77.728 198.065 77.728 198.659V199.111H72.5249V198.156H76.4794C76.4794 197.821 76.4112 197.524 76.2749 197.266C76.1385 197.004 75.9467 196.798 75.6996 196.648C75.4553 196.497 75.1683 196.422 74.8388 196.422C74.4808 196.422 74.1683 196.51 73.9013 196.686C73.6371 196.859 73.4325 197.087 73.2876 197.368C73.1456 197.646 73.0746 197.949 73.0746 198.276V199.021C73.0746 199.459 73.1513 199.831 73.3047 200.138C73.4609 200.445 73.6783 200.679 73.9567 200.841C74.2351 201 74.5604 201.08 74.9325 201.08C75.174 201.08 75.3942 201.045 75.593 200.977C75.7919 200.906 75.9638 200.801 76.1087 200.662C76.2536 200.523 76.3643 200.351 76.4411 200.146L77.647 200.364C77.5504 200.719 77.3771 201.03 77.1271 201.297C76.88 201.561 76.5689 201.767 76.1939 201.915C75.8217 202.06 75.397 202.132 74.9197 202.132ZM83.7365 202L81.8104 195.455H83.1271L84.4098 200.261H84.4737L85.7607 195.455H87.0774L88.3558 200.24H88.4197L89.6939 195.455H91.0107L89.0888 202H87.7891L86.4595 197.274H86.3615L85.032 202H83.7365ZM92.2198 202V195.455H93.494V202H92.2198ZM92.8633 194.445C92.6417 194.445 92.4513 194.371 92.2923 194.223C92.136 194.072 92.0579 193.893 92.0579 193.686C92.0579 193.476 92.136 193.297 92.2923 193.149C92.4513 192.999 92.6417 192.923 92.8633 192.923C93.0849 192.923 93.2738 192.999 93.43 193.149C93.5891 193.297 93.6687 193.476 93.6687 193.686C93.6687 193.893 93.5891 194.072 93.43 194.223C93.2738 194.371 93.0849 194.445 92.8633 194.445ZM98.2635 195.455V196.477H94.6882V195.455H98.2635ZM95.647 193.886H96.9212V200.078C96.9212 200.325 96.9581 200.511 97.032 200.636C97.1058 200.759 97.201 200.842 97.3175 200.888C97.4368 200.93 97.5661 200.952 97.7053 200.952C97.8075 200.952 97.897 200.945 97.9737 200.93C98.0504 200.916 98.1101 200.905 98.1527 200.896L98.3828 201.949C98.3089 201.977 98.2038 202.006 98.0675 202.034C97.9311 202.065 97.7607 202.082 97.5561 202.085C97.2209 202.091 96.9084 202.031 96.6186 201.906C96.3288 201.781 96.0945 201.588 95.9155 201.327C95.7365 201.065 95.647 200.737 95.647 200.342V193.886ZM101.088 198.114V202H99.8136V193.273H101.071V196.52H101.152C101.305 196.168 101.539 195.888 101.855 195.68C102.17 195.473 102.582 195.369 103.091 195.369C103.539 195.369 103.931 195.462 104.267 195.646C104.605 195.831 104.866 196.107 105.051 196.473C105.238 196.837 105.332 197.291 105.332 197.837V202H104.058V197.99C104.058 197.51 103.934 197.138 103.687 196.874C103.44 196.607 103.096 196.473 102.656 196.473C102.355 196.473 102.085 196.537 101.846 196.665C101.61 196.793 101.424 196.98 101.288 197.227C101.154 197.472 101.088 197.767 101.088 198.114ZM113.263 195.455V196.477H109.688V195.455H113.263ZM110.647 193.886H111.921V200.078C111.921 200.325 111.958 200.511 112.032 200.636C112.106 200.759 112.201 200.842 112.317 200.888C112.437 200.93 112.566 200.952 112.705 200.952C112.808 200.952 112.897 200.945 112.974 200.93C113.05 200.916 113.11 200.905 113.153 200.896L113.383 201.949C113.309 201.977 113.204 202.006 113.067 202.034C112.931 202.065 112.761 202.082 112.556 202.085C112.221 202.091 111.908 202.031 111.619 201.906C111.329 201.781 111.094 201.588 110.915 201.327C110.737 201.065 110.647 200.737 110.647 200.342V193.886ZM116.088 198.114V202H114.814V193.273H116.071V196.52H116.152C116.305 196.168 116.539 195.888 116.855 195.68C117.17 195.473 117.582 195.369 118.091 195.369C118.539 195.369 118.931 195.462 119.267 195.646C119.605 195.831 119.866 196.107 120.051 196.473C120.238 196.837 120.332 197.291 120.332 197.837V202H119.058V197.99C119.058 197.51 118.934 197.138 118.687 196.874C118.44 196.607 118.096 196.473 117.656 196.473C117.355 196.473 117.085 196.537 116.846 196.665C116.61 196.793 116.424 196.98 116.288 197.227C116.154 197.472 116.088 197.767 116.088 198.114ZM124.853 202.132C124.208 202.132 123.653 201.994 123.187 201.719C122.724 201.44 122.366 201.05 122.113 200.547C121.863 200.041 121.738 199.449 121.738 198.77C121.738 198.099 121.863 197.509 122.113 196.997C122.366 196.486 122.718 196.087 123.17 195.8C123.625 195.513 124.156 195.369 124.764 195.369C125.133 195.369 125.491 195.43 125.838 195.553C126.184 195.675 126.495 195.866 126.771 196.128C127.047 196.389 127.264 196.729 127.423 197.146C127.582 197.561 127.662 198.065 127.662 198.659V199.111H122.458V198.156H126.413C126.413 197.821 126.345 197.524 126.208 197.266C126.072 197.004 125.88 196.798 125.633 196.648C125.389 196.497 125.102 196.422 124.772 196.422C124.414 196.422 124.102 196.51 123.835 196.686C123.571 196.859 123.366 197.087 123.221 197.368C123.079 197.646 123.008 197.949 123.008 198.276V199.021C123.008 199.459 123.085 199.831 123.238 200.138C123.395 200.445 123.612 200.679 123.89 200.841C124.169 201 124.494 201.08 124.866 201.08C125.108 201.08 125.328 201.045 125.527 200.977C125.725 200.906 125.897 200.801 126.042 200.662C126.187 200.523 126.298 200.351 126.375 200.146L127.581 200.364C127.484 200.719 127.311 201.03 127.061 201.297C126.814 201.561 126.502 201.767 126.127 201.915C125.755 202.06 125.331 202.132 124.853 202.132ZM33.5233 209.273V218H32.2491V209.273H33.5233ZM37.1422 218.145C36.7275 218.145 36.3525 218.068 36.0172 217.915C35.682 217.759 35.4164 217.533 35.2203 217.237C35.0272 216.942 34.9306 216.58 34.9306 216.151C34.9306 215.781 35.0016 215.477 35.1436 215.239C35.2857 215 35.4775 214.811 35.7189 214.672C35.9604 214.533 36.2303 214.428 36.5286 214.357C36.8269 214.286 37.1309 214.232 37.4405 214.195C37.8326 214.149 38.1507 214.112 38.3951 214.084C38.6394 214.053 38.8169 214.003 38.9277 213.935C39.0385 213.866 39.0939 213.756 39.0939 213.602V213.572C39.0939 213.2 38.9888 212.912 38.7786 212.707C38.5712 212.503 38.2615 212.401 37.8496 212.401C37.4206 212.401 37.0826 212.496 36.8354 212.686C36.5911 212.874 36.4221 213.082 36.3283 213.312L35.1309 213.04C35.2729 212.642 35.4803 212.321 35.753 212.077C36.0286 211.83 36.3453 211.651 36.7033 211.54C37.0613 211.426 37.4377 211.369 37.8326 211.369C38.0939 211.369 38.3709 211.401 38.6635 211.463C38.959 211.523 39.2346 211.634 39.4902 211.795C39.7488 211.957 39.9604 212.189 40.1252 212.49C40.29 212.788 40.3723 213.176 40.3723 213.653V218H39.128V217.105H39.0769C38.9945 217.27 38.8709 217.432 38.7061 217.591C38.5414 217.75 38.3297 217.882 38.0712 217.987C37.8127 218.092 37.503 218.145 37.1422 218.145ZM37.4192 217.122C37.7715 217.122 38.0726 217.053 38.3226 216.913C38.5755 216.774 38.7672 216.592 38.8979 216.368C39.0314 216.141 39.0982 215.898 39.0982 215.639V214.795C39.0527 214.841 38.9647 214.884 38.834 214.923C38.7061 214.96 38.5598 214.993 38.3951 215.021C38.2303 215.047 38.0698 215.071 37.9135 215.094C37.7573 215.114 37.6266 215.131 37.5215 215.145C37.2743 215.176 37.0485 215.229 36.8439 215.303C36.6422 215.376 36.4803 215.483 36.3581 215.622C36.2388 215.759 36.1792 215.94 36.1792 216.168C36.1792 216.483 36.2956 216.722 36.5286 216.884C36.7615 217.043 37.0584 217.122 37.4192 217.122ZM45.1248 211.455V212.477H41.5495V211.455H45.1248ZM42.5083 209.886H43.7825V216.078C43.7825 216.325 43.8194 216.511 43.8933 216.636C43.9672 216.759 44.0623 216.842 44.1788 216.888C44.2981 216.93 44.4274 216.952 44.5666 216.952C44.6689 216.952 44.7583 216.945 44.835 216.93C44.9118 216.916 44.9714 216.905 45.014 216.896L45.2441 217.949C45.1703 217.977 45.0652 218.006 44.9288 218.034C44.7924 218.065 44.622 218.082 44.4174 218.085C44.0822 218.091 43.7697 218.031 43.4799 217.906C43.1902 217.781 42.9558 217.588 42.7768 217.327C42.5978 217.065 42.5083 216.737 42.5083 216.342V209.886ZM49.285 218.132C48.6401 218.132 48.0847 217.994 47.6188 217.719C47.1557 217.44 46.7978 217.05 46.5449 216.547C46.2949 216.041 46.1699 215.449 46.1699 214.77C46.1699 214.099 46.2949 213.509 46.5449 212.997C46.7978 212.486 47.15 212.087 47.6017 211.8C48.0563 211.513 48.5875 211.369 49.1955 211.369C49.5648 211.369 49.9228 211.43 50.2694 211.553C50.6159 211.675 50.927 211.866 51.2026 212.128C51.4782 212.389 51.6955 212.729 51.8546 213.146C52.0137 213.561 52.0932 214.065 52.0932 214.659V215.111H46.8901V214.156H50.8446C50.8446 213.821 50.7765 213.524 50.6401 213.266C50.5037 213.004 50.312 212.798 50.0648 212.648C49.8205 212.497 49.5336 212.422 49.204 212.422C48.8461 212.422 48.5336 212.51 48.2665 212.686C48.0023 212.859 47.7978 213.087 47.6529 213.368C47.5108 213.646 47.4398 213.949 47.4398 214.276V215.021C47.4398 215.459 47.5165 215.831 47.6699 216.138C47.8262 216.445 48.0435 216.679 48.3219 216.841C48.6003 217 48.9256 217.08 49.2978 217.08C49.5392 217.08 49.7594 217.045 49.9583 216.977C50.1571 216.906 50.329 216.801 50.4739 216.662C50.6188 216.523 50.7296 216.351 50.8063 216.146L52.0123 216.364C51.9157 216.719 51.7424 217.03 51.4924 217.297C51.2452 217.561 50.9341 217.767 50.5591 217.915C50.187 218.06 49.7623 218.132 49.285 218.132ZM58.4118 213.053L57.2569 213.257C57.2086 213.109 57.1319 212.969 57.0268 212.835C56.9245 212.702 56.7853 212.592 56.6092 212.507C56.4331 212.422 56.2129 212.379 55.9487 212.379C55.5879 212.379 55.2868 212.46 55.0453 212.622C54.8038 212.781 54.6831 212.987 54.6831 213.24C54.6831 213.459 54.764 213.635 54.926 213.768C55.0879 213.902 55.3493 214.011 55.71 214.097L56.7498 214.335C57.3521 214.474 57.801 214.689 58.0964 214.979C58.3919 215.268 58.5396 215.645 58.5396 216.108C58.5396 216.5 58.426 216.849 58.1987 217.156C57.9743 217.46 57.6603 217.699 57.2569 217.872C56.8564 218.045 56.3919 218.132 55.8635 218.132C55.1305 218.132 54.5325 217.976 54.0694 217.663C53.6064 217.348 53.3223 216.901 53.2172 216.321L54.4487 216.134C54.5254 216.455 54.6831 216.697 54.9217 216.862C55.1603 217.024 55.4714 217.105 55.8549 217.105C56.2725 217.105 56.6064 217.018 56.8564 216.845C57.1064 216.669 57.2314 216.455 57.2314 216.202C57.2314 215.997 57.1547 215.825 57.0012 215.686C56.8507 215.547 56.6191 215.442 56.3066 215.371L55.1987 215.128C54.5879 214.989 54.1362 214.767 53.8436 214.463C53.5538 214.159 53.4089 213.774 53.4089 213.308C53.4089 212.922 53.5169 212.584 53.7328 212.294C53.9487 212.004 54.247 211.778 54.6277 211.616C55.0083 211.452 55.4444 211.369 55.9359 211.369C56.6433 211.369 57.2001 211.523 57.6064 211.83C58.0126 212.134 58.2811 212.541 58.4118 213.053ZM62.9959 211.455V212.477H59.4206V211.455H62.9959ZM60.3794 209.886H61.6536V216.078C61.6536 216.325 61.6905 216.511 61.7644 216.636C61.8382 216.759 61.9334 216.842 62.0499 216.888C62.1692 216.93 62.2985 216.952 62.4377 216.952C62.54 216.952 62.6294 216.945 62.7061 216.93C62.7828 216.916 62.8425 216.905 62.8851 216.896L63.1152 217.949C63.0414 217.977 62.9363 218.006 62.7999 218.034C62.6635 218.065 62.4931 218.082 62.2885 218.085C61.9533 218.091 61.6408 218.031 61.351 217.906C61.0613 217.781 60.8269 217.588 60.6479 217.327C60.4689 217.065 60.3794 216.737 60.3794 216.342V209.886ZM73.1806 211.455L70.807 218H69.4434L67.0655 211.455H68.4334L70.0911 216.491H70.1593L71.8127 211.455H73.1806ZM76.9764 218.132C76.3315 218.132 75.7761 217.994 75.3102 217.719C74.8471 217.44 74.4892 217.05 74.2363 216.547C73.9863 216.041 73.8613 215.449 73.8613 214.77C73.8613 214.099 73.9863 213.509 74.2363 212.997C74.4892 212.486 74.8414 212.087 75.2931 211.8C75.7477 211.513 76.2789 211.369 76.8869 211.369C77.2562 211.369 77.6142 211.43 77.9608 211.553C78.3074 211.675 78.6184 211.866 78.894 212.128C79.1696 212.389 79.3869 212.729 79.546 213.146C79.7051 213.561 79.7846 214.065 79.7846 214.659V215.111H74.5815V214.156H78.536C78.536 213.821 78.4679 213.524 78.3315 213.266C78.1951 213.004 78.0034 212.798 77.7562 212.648C77.5119 212.497 77.225 212.422 76.8954 212.422C76.5375 212.422 76.225 212.51 75.9579 212.686C75.6937 212.859 75.4892 213.087 75.3443 213.368C75.2022 213.646 75.1312 213.949 75.1312 214.276V215.021C75.1312 215.459 75.2079 215.831 75.3613 216.138C75.5176 216.445 75.7349 216.679 76.0133 216.841C76.2917 217 76.617 217.08 76.9892 217.08C77.2306 217.08 77.4508 217.045 77.6497 216.977C77.8485 216.906 78.0204 216.801 78.1653 216.662C78.3102 216.523 78.421 216.351 78.4977 216.146L79.7037 216.364C79.6071 216.719 79.4338 217.03 79.1838 217.297C78.9366 217.561 78.6255 217.767 78.2505 217.915C77.8784 218.06 77.4537 218.132 76.9764 218.132ZM81.1983 218V211.455H82.4299V212.494H82.498C82.6174 212.142 82.8276 211.865 83.1287 211.663C83.4327 211.459 83.7765 211.357 84.16 211.357C84.2395 211.357 84.3333 211.359 84.4412 211.365C84.552 211.371 84.6387 211.378 84.7012 211.386V212.605C84.65 212.591 84.5591 212.575 84.4284 212.558C84.2978 212.538 84.1671 212.528 84.0364 212.528C83.7353 212.528 83.4668 212.592 83.231 212.72C82.998 212.845 82.8134 213.02 82.677 213.244C82.5407 213.466 82.4725 213.719 82.4725 214.003V218H81.1983ZM90.7086 213.053L89.5538 213.257C89.5055 213.109 89.4288 212.969 89.3237 212.835C89.2214 212.702 89.0822 212.592 88.9061 212.507C88.7299 212.422 88.5098 212.379 88.2456 212.379C87.8848 212.379 87.5836 212.46 87.3422 212.622C87.1007 212.781 86.9799 212.987 86.9799 213.24C86.9799 213.459 87.0609 213.635 87.2228 213.768C87.3848 213.902 87.6461 214.011 88.0069 214.097L89.0467 214.335C89.649 214.474 90.0978 214.689 90.3933 214.979C90.6887 215.268 90.8365 215.645 90.8365 216.108C90.8365 216.5 90.7228 216.849 90.4956 217.156C90.2711 217.46 89.9572 217.699 89.5538 217.872C89.1532 218.045 88.6887 218.132 88.1603 218.132C87.4274 218.132 86.8294 217.976 86.3663 217.663C85.9032 217.348 85.6191 216.901 85.514 216.321L86.7456 216.134C86.8223 216.455 86.9799 216.697 87.2186 216.862C87.4572 217.024 87.7683 217.105 88.1518 217.105C88.5694 217.105 88.9032 217.018 89.1532 216.845C89.4032 216.669 89.5282 216.455 89.5282 216.202C89.5282 215.997 89.4515 215.825 89.2981 215.686C89.1475 215.547 88.916 215.442 88.6035 215.371L87.4956 215.128C86.8848 214.989 86.4331 214.767 86.1404 214.463C85.8507 214.159 85.7058 213.774 85.7058 213.308C85.7058 212.922 85.8137 212.584 86.0297 212.294C86.2456 212.004 86.5439 211.778 86.9245 211.616C87.3052 211.452 87.7413 211.369 88.2328 211.369C88.9402 211.369 89.497 211.523 89.9032 211.83C90.3095 212.134 90.5779 212.541 90.7086 213.053ZM92.2374 218V211.455H93.5115V218H92.2374ZM92.8809 210.445C92.6593 210.445 92.4689 210.371 92.3098 210.223C92.1536 210.072 92.0755 209.893 92.0755 209.686C92.0755 209.476 92.1536 209.297 92.3098 209.149C92.4689 208.999 92.6593 208.923 92.8809 208.923C93.1025 208.923 93.2914 208.999 93.4476 209.149C93.6067 209.297 93.6863 209.476 93.6863 209.686C93.6863 209.893 93.6067 210.072 93.4476 210.223C93.2914 210.371 93.1025 210.445 92.8809 210.445ZM97.9828 218.132C97.3691 218.132 96.8336 217.991 96.3762 217.71C95.9189 217.429 95.5637 217.036 95.3109 216.53C95.0581 216.024 94.9316 215.433 94.9316 214.757C94.9316 214.078 95.0581 213.484 95.3109 212.976C95.5637 212.467 95.9189 212.072 96.3762 211.791C96.8336 211.51 97.3691 211.369 97.9828 211.369C98.5964 211.369 99.1319 211.51 99.5893 211.791C100.047 212.072 100.402 212.467 100.655 212.976C100.907 213.484 101.034 214.078 101.034 214.757C101.034 215.433 100.907 216.024 100.655 216.53C100.402 217.036 100.047 217.429 99.5893 217.71C99.1319 217.991 98.5964 218.132 97.9828 218.132ZM97.987 217.062C98.3848 217.062 98.7143 216.957 98.9757 216.747C99.237 216.537 99.4302 216.257 99.5552 215.908C99.6831 215.558 99.747 215.173 99.747 214.753C99.747 214.335 99.6831 213.952 99.5552 213.602C99.4302 213.25 99.237 212.967 98.9757 212.754C98.7143 212.541 98.3848 212.435 97.987 212.435C97.5865 212.435 97.2541 212.541 96.9899 212.754C96.7285 212.967 96.5339 213.25 96.4061 213.602C96.2811 213.952 96.2186 214.335 96.2186 214.753C96.2186 215.173 96.2811 215.558 96.4061 215.908C96.5339 216.257 96.7285 216.537 96.9899 216.747C97.2541 216.957 97.5865 217.062 97.987 217.062ZM103.73 214.114V218H102.456V211.455H103.679V212.52H103.76C103.911 212.173 104.146 211.895 104.468 211.685C104.791 211.474 105.199 211.369 105.691 211.369C106.137 211.369 106.527 211.463 106.862 211.651C107.198 211.835 107.458 212.111 107.642 212.477C107.827 212.844 107.919 213.297 107.919 213.837V218H106.645V213.99C106.645 213.516 106.521 213.145 106.274 212.878C106.027 212.608 105.688 212.473 105.256 212.473C104.96 212.473 104.698 212.537 104.468 212.665C104.24 212.793 104.06 212.98 103.926 213.227C103.796 213.472 103.73 213.767 103.73 214.114ZM115.561 218.132C114.947 218.132 114.412 217.991 113.954 217.71C113.497 217.429 113.142 217.036 112.889 216.53C112.636 216.024 112.51 215.433 112.51 214.757C112.51 214.078 112.636 213.484 112.889 212.976C113.142 212.467 113.497 212.072 113.954 211.791C114.412 211.51 114.947 211.369 115.561 211.369C116.175 211.369 116.71 211.51 117.167 211.791C117.625 212.072 117.98 212.467 118.233 212.976C118.486 213.484 118.612 214.078 118.612 214.757C118.612 215.433 118.486 216.024 118.233 216.53C117.98 217.036 117.625 217.429 117.167 217.71C116.71 217.991 116.175 218.132 115.561 218.132ZM115.565 217.062C115.963 217.062 116.292 216.957 116.554 216.747C116.815 216.537 117.008 216.257 117.133 215.908C117.261 215.558 117.325 215.173 117.325 214.753C117.325 214.335 117.261 213.952 117.133 213.602C117.008 213.25 116.815 212.967 116.554 212.754C116.292 212.541 115.963 212.435 115.565 212.435C115.165 212.435 114.832 212.541 114.568 212.754C114.307 212.967 114.112 213.25 113.984 213.602C113.859 213.952 113.797 214.335 113.797 214.753C113.797 215.173 113.859 215.558 113.984 215.908C114.112 216.257 114.307 216.537 114.568 216.747C114.832 216.957 115.165 217.062 115.565 217.062ZM123.149 211.455V212.477H119.45V211.455H123.149ZM120.465 218V210.696C120.465 210.287 120.554 209.947 120.733 209.678C120.912 209.405 121.149 209.202 121.445 209.068C121.74 208.932 122.061 208.864 122.408 208.864C122.664 208.864 122.882 208.885 123.064 208.928C123.246 208.967 123.381 209.004 123.469 209.038L123.171 210.07C123.111 210.053 123.034 210.033 122.941 210.01C122.847 209.984 122.733 209.972 122.6 209.972C122.29 209.972 122.068 210.048 121.935 210.202C121.804 210.355 121.739 210.577 121.739 210.866V218H120.465ZM57.8173 225.273L60.2463 232.381H60.3443L62.7733 225.273H64.1966L61.0559 234H59.5346L56.394 225.273H57.8173ZM67.5194 234.132C66.8745 234.132 66.3191 233.994 65.8532 233.719C65.3901 233.44 65.0321 233.05 64.7793 232.547C64.5293 232.041 64.4043 231.449 64.4043 230.77C64.4043 230.099 64.5293 229.509 64.7793 228.997C65.0321 228.486 65.3844 228.087 65.8361 227.8C66.2907 227.513 66.8219 227.369 67.4299 227.369C67.7992 227.369 68.1571 227.43 68.5037 227.553C68.8503 227.675 69.1614 227.866 69.437 228.128C69.7125 228.389 69.9299 228.729 70.089 229.146C70.248 229.561 70.3276 230.065 70.3276 230.659V231.111H65.1245V230.156H69.079C69.079 229.821 69.0108 229.524 68.8745 229.266C68.7381 229.004 68.5463 228.798 68.2992 228.648C68.0549 228.497 67.7679 228.422 67.4384 228.422C67.0804 228.422 66.7679 228.51 66.5009 228.686C66.2367 228.859 66.0321 229.087 65.8873 229.368C65.7452 229.646 65.6742 229.949 65.6742 230.276V231.021C65.6742 231.459 65.7509 231.831 65.9043 232.138C66.0605 232.445 66.2779 232.679 66.5563 232.841C66.8347 233 67.16 233.08 67.5321 233.08C67.7736 233.08 67.9938 233.045 68.1926 232.977C68.3915 232.906 68.5634 232.801 68.7083 232.662C68.8532 232.523 68.964 232.351 69.0407 232.146L70.2466 232.364C70.15 232.719 69.9767 233.03 69.7267 233.297C69.4796 233.561 69.1685 233.767 68.7935 233.915C68.4213 234.06 67.9966 234.132 67.5194 234.132ZM73.0154 230.114V234H71.7413V227.455H72.9643V228.52H73.0453C73.1958 228.173 73.4316 227.895 73.7527 227.685C74.0765 227.474 74.4842 227.369 74.9757 227.369C75.4217 227.369 75.8123 227.463 76.1475 227.651C76.4828 227.835 76.7427 228.111 76.9274 228.477C77.112 228.844 77.2044 229.297 77.2044 229.837V234H75.9302V229.99C75.9302 229.516 75.8066 229.145 75.5595 228.878C75.3123 228.608 74.9728 228.473 74.541 228.473C74.2456 228.473 73.9828 228.537 73.7527 228.665C73.5254 228.793 73.345 228.98 73.2115 229.227C73.0808 229.472 73.0154 229.767 73.0154 230.114ZM81.9686 227.455V228.477H78.3933V227.455H81.9686ZM79.3521 225.886H80.6262V232.078C80.6262 232.325 80.6632 232.511 80.737 232.636C80.8109 232.759 80.9061 232.842 81.0225 232.888C81.1419 232.93 81.2711 232.952 81.4103 232.952C81.5126 232.952 81.6021 232.945 81.6788 232.93C81.7555 232.916 81.8152 232.905 81.8578 232.896L82.0879 233.949C82.014 233.977 81.9089 234.006 81.7725 234.034C81.6362 234.065 81.4657 234.082 81.2612 234.085C80.926 234.091 80.6135 234.031 80.3237 233.906C80.0339 233.781 79.7995 233.588 79.6206 233.327C79.4416 233.065 79.3521 232.737 79.3521 232.342V225.886ZM83.378 234V227.455H84.6522V234H83.378ZM84.0215 226.445C83.7999 226.445 83.6096 226.371 83.4505 226.223C83.2942 226.072 83.2161 225.893 83.2161 225.686C83.2161 225.476 83.2942 225.297 83.4505 225.149C83.6096 224.999 83.7999 224.923 84.0215 224.923C84.2431 224.923 84.432 224.999 84.5882 225.149C84.7473 225.297 84.8269 225.476 84.8269 225.686C84.8269 225.893 84.7473 226.072 84.5882 226.223C84.432 226.371 84.2431 226.445 84.0215 226.445ZM87.372 227.455L88.8166 230.003L90.274 227.455H91.6674L89.6262 230.727L91.6845 234H90.291L88.8166 231.554L87.3464 234H85.9487L87.9856 230.727L85.9743 227.455H87.372ZM95.5389 234.132C94.894 234.132 94.3386 233.994 93.8727 233.719C93.4096 233.44 93.0517 233.05 92.7988 232.547C92.5488 232.041 92.4238 231.449 92.4238 230.77C92.4238 230.099 92.5488 229.509 92.7988 228.997C93.0517 228.486 93.4039 228.087 93.8556 227.8C94.3102 227.513 94.8414 227.369 95.4494 227.369C95.8187 227.369 96.1767 227.43 96.5233 227.553C96.8699 227.675 97.1809 227.866 97.4565 228.128C97.7321 228.389 97.9494 228.729 98.1085 229.146C98.2676 229.561 98.3471 230.065 98.3471 230.659V231.111H93.144V230.156H97.0985C97.0985 229.821 97.0304 229.524 96.894 229.266C96.7576 229.004 96.5659 228.798 96.3187 228.648C96.0744 228.497 95.7875 228.422 95.4579 228.422C95.1 228.422 94.7875 228.51 94.5204 228.686C94.2562 228.859 94.0517 229.087 93.9068 229.368C93.7647 229.646 93.6937 229.949 93.6937 230.276V231.021C93.6937 231.459 93.7704 231.831 93.9238 232.138C94.0801 232.445 94.2974 232.679 94.5758 232.841C94.8542 233 95.1795 233.08 95.5517 233.08C95.7931 233.08 96.0133 233.045 96.2122 232.977C96.411 232.906 96.5829 232.801 96.7278 232.662C96.8727 232.523 96.9835 232.351 97.0602 232.146L98.2662 232.364C98.1696 232.719 97.9963 233.03 97.7463 233.297C97.4991 233.561 97.188 233.767 96.813 233.915C96.4409 234.06 96.0162 234.132 95.5389 234.132Z" fill="#37437D"/>
<rect x="16" y="256" width="123" height="36" rx="18" fill="#F26CF9"/>
<path d="M30.9249 270.406V269.273H37.6792V270.406H34.9561V278H33.6436V270.406H30.9249ZM38.3897 278V271.455H39.6213V272.494H39.6895C39.8088 272.142 40.019 271.865 40.3201 271.663C40.6241 271.459 40.9679 271.357 41.3514 271.357C41.4309 271.357 41.5247 271.359 41.6326 271.365C41.7434 271.371 41.8301 271.378 41.8926 271.386V272.605C41.8414 272.591 41.7505 272.575 41.6199 272.558C41.4892 272.538 41.3585 272.528 41.2278 272.528C40.9267 272.528 40.6582 272.592 40.4224 272.72C40.1895 272.845 40.0048 273.02 39.8684 273.244C39.7321 273.466 39.6639 273.719 39.6639 274.003V278H38.3897ZM43.9998 280.455C43.8095 280.455 43.6362 280.439 43.4799 280.408C43.3237 280.379 43.2072 280.348 43.1305 280.314L43.4373 279.27C43.6703 279.332 43.8777 279.359 44.0595 279.351C44.2413 279.342 44.4018 279.274 44.541 279.146C44.6831 279.018 44.8081 278.81 44.916 278.52L45.0737 278.085L42.6788 271.455H44.0424L45.7001 276.534H45.7683L47.426 271.455H48.7939L46.0964 278.874C45.9714 279.214 45.8123 279.503 45.6191 279.739C45.426 279.977 45.1958 280.156 44.9288 280.276C44.6618 280.395 44.3521 280.455 43.9998 280.455ZM60.3134 269.273V278H59.1032L54.6671 271.599H54.5861V278H53.2694V269.273H54.4881L58.9284 275.682H59.0094V269.273H60.3134ZM64.9529 278.132C64.3081 278.132 63.7527 277.994 63.2868 277.719C62.8237 277.44 62.4657 277.05 62.2129 276.547C61.9629 276.041 61.8379 275.449 61.8379 274.77C61.8379 274.099 61.9629 273.509 62.2129 272.997C62.4657 272.486 62.818 272.087 63.2697 271.8C63.7243 271.513 64.2555 271.369 64.8635 271.369C65.2328 271.369 65.5907 271.43 65.9373 271.553C66.2839 271.675 66.595 271.866 66.8706 272.128C67.1461 272.389 67.3635 272.729 67.5226 273.146C67.6816 273.561 67.7612 274.065 67.7612 274.659V275.111H62.5581V274.156H66.5126C66.5126 273.821 66.4444 273.524 66.3081 273.266C66.1717 273.004 65.9799 272.798 65.7328 272.648C65.4885 272.497 65.2015 272.422 64.872 272.422C64.514 272.422 64.2015 272.51 63.9345 272.686C63.6703 272.859 63.4657 273.087 63.3208 273.368C63.1788 273.646 63.1078 273.949 63.1078 274.276V275.021C63.1078 275.459 63.1845 275.831 63.3379 276.138C63.4941 276.445 63.7115 276.679 63.9899 276.841C64.2683 277 64.5936 277.08 64.9657 277.08C65.2072 277.08 65.4274 277.045 65.6262 276.977C65.8251 276.906 65.997 276.801 66.1419 276.662C66.2868 276.523 66.3975 276.351 66.4743 276.146L67.6802 276.364C67.5836 276.719 67.4103 277.03 67.1603 277.297C66.9132 277.561 66.6021 277.767 66.2271 277.915C65.8549 278.06 65.4302 278.132 64.9529 278.132ZM70.5822 278L68.6561 271.455H69.9728L71.2555 276.261H71.3194L72.6064 271.455H73.9231L75.2015 276.24H75.2654L76.5396 271.455H77.8564L75.9345 278H74.6348L73.3052 273.274H73.2072L71.8777 278H70.5822ZM83.1064 269.273L85.5353 276.381H85.6333L88.0623 269.273H89.4856L86.345 278H84.8237L81.6831 269.273H83.1064ZM92.8084 278.132C92.1635 278.132 91.6081 277.994 91.1422 277.719C90.6792 277.44 90.3212 277.05 90.0684 276.547C89.8184 276.041 89.6934 275.449 89.6934 274.77C89.6934 274.099 89.8184 273.509 90.0684 272.997C90.3212 272.486 90.6735 272.087 91.1252 271.8C91.5797 271.513 92.111 271.369 92.7189 271.369C93.0882 271.369 93.4462 271.43 93.7928 271.553C94.1394 271.675 94.4505 271.866 94.726 272.128C95.0016 272.389 95.2189 272.729 95.378 273.146C95.5371 273.561 95.6167 274.065 95.6167 274.659V275.111H90.4135V274.156H94.3681C94.3681 273.821 94.2999 273.524 94.1635 273.266C94.0272 273.004 93.8354 272.798 93.5882 272.648C93.3439 272.497 93.057 272.422 92.7275 272.422C92.3695 272.422 92.057 272.51 91.79 272.686C91.5257 272.859 91.3212 273.087 91.1763 273.368C91.0343 273.646 90.9632 273.949 90.9632 274.276V275.021C90.9632 275.459 91.04 275.831 91.1934 276.138C91.3496 276.445 91.5669 276.679 91.8453 276.841C92.1238 277 92.449 277.08 92.8212 277.08C93.0627 277.08 93.2828 277.045 93.4817 276.977C93.6806 276.906 93.8525 276.801 93.9973 276.662C94.1422 276.523 94.253 276.351 94.3297 276.146L95.5357 276.364C95.4391 276.719 95.2658 277.03 95.0158 277.297C94.7686 277.561 94.4576 277.767 94.0826 277.915C93.7104 278.06 93.2857 278.132 92.8084 278.132ZM97.0304 278V271.455H98.2619V272.494H98.3301C98.4494 272.142 98.6596 271.865 98.9608 271.663C99.2647 271.459 99.6085 271.357 99.992 271.357C100.072 271.357 100.165 271.359 100.273 271.365C100.384 271.371 100.471 271.378 100.533 271.386V272.605C100.482 272.591 100.391 272.575 100.26 272.558C100.13 272.538 99.9991 272.528 99.8684 272.528C99.5673 272.528 99.2988 272.592 99.063 272.72C98.8301 272.845 98.6454 273.02 98.5091 273.244C98.3727 273.466 98.3045 273.719 98.3045 274.003V278H97.0304ZM106.541 273.053L105.386 273.257C105.338 273.109 105.261 272.969 105.156 272.835C105.053 272.702 104.914 272.592 104.738 272.507C104.562 272.422 104.342 272.379 104.078 272.379C103.717 272.379 103.416 272.46 103.174 272.622C102.933 272.781 102.812 272.987 102.812 273.24C102.812 273.459 102.893 273.635 103.055 273.768C103.217 273.902 103.478 274.011 103.839 274.097L104.879 274.335C105.481 274.474 105.93 274.689 106.225 274.979C106.521 275.268 106.669 275.645 106.669 276.108C106.669 276.5 106.555 276.849 106.328 277.156C106.103 277.46 105.789 277.699 105.386 277.872C104.985 278.045 104.521 278.132 103.992 278.132C103.259 278.132 102.661 277.976 102.198 277.663C101.735 277.348 101.451 276.901 101.346 276.321L102.578 276.134C102.654 276.455 102.812 276.697 103.051 276.862C103.289 277.024 103.6 277.105 103.984 277.105C104.401 277.105 104.735 277.018 104.985 276.845C105.235 276.669 105.36 276.455 105.36 276.202C105.36 275.997 105.284 275.825 105.13 275.686C104.98 275.547 104.748 275.442 104.436 275.371L103.328 275.128C102.717 274.989 102.265 274.767 101.972 274.463C101.683 274.159 101.538 273.774 101.538 273.308C101.538 272.922 101.646 272.584 101.862 272.294C102.078 272.004 102.376 271.778 102.757 271.616C103.137 271.452 103.573 271.369 104.065 271.369C104.772 271.369 105.329 271.523 105.735 271.83C106.142 272.134 106.41 272.541 106.541 273.053ZM108.069 278V271.455H109.344V278H108.069ZM108.713 270.445C108.491 270.445 108.301 270.371 108.142 270.223C107.986 270.072 107.907 269.893 107.907 269.686C107.907 269.476 107.986 269.297 108.142 269.149C108.301 268.999 108.491 268.923 108.713 268.923C108.934 268.923 109.123 268.999 109.28 269.149C109.439 269.297 109.518 269.476 109.518 269.686C109.518 269.893 109.439 270.072 109.28 270.223C109.123 270.371 108.934 270.445 108.713 270.445ZM113.815 278.132C113.201 278.132 112.666 277.991 112.208 277.71C111.751 277.429 111.396 277.036 111.143 276.53C110.89 276.024 110.764 275.433 110.764 274.757C110.764 274.078 110.89 273.484 111.143 272.976C111.396 272.467 111.751 272.072 112.208 271.791C112.666 271.51 113.201 271.369 113.815 271.369C114.428 271.369 114.964 271.51 115.421 271.791C115.879 272.072 116.234 272.467 116.487 272.976C116.74 273.484 116.866 274.078 116.866 274.757C116.866 275.433 116.74 276.024 116.487 276.53C116.234 277.036 115.879 277.429 115.421 277.71C114.964 277.991 114.428 278.132 113.815 278.132ZM113.819 277.062C114.217 277.062 114.546 276.957 114.808 276.747C115.069 276.537 115.262 276.257 115.387 275.908C115.515 275.558 115.579 275.173 115.579 274.753C115.579 274.335 115.515 273.952 115.387 273.602C115.262 273.25 115.069 272.967 114.808 272.754C114.546 272.541 114.217 272.435 113.819 272.435C113.419 272.435 113.086 272.541 112.822 272.754C112.561 272.967 112.366 273.25 112.238 273.602C112.113 273.952 112.051 274.335 112.051 274.753C112.051 275.173 112.113 275.558 112.238 275.908C112.366 276.257 112.561 276.537 112.822 276.747C113.086 276.957 113.419 277.062 113.819 277.062ZM119.562 274.114V278H118.288V271.455H119.511V272.52H119.592C119.743 272.173 119.979 271.895 120.3 271.685C120.623 271.474 121.031 271.369 121.523 271.369C121.969 271.369 122.359 271.463 122.694 271.651C123.03 271.835 123.29 272.111 123.474 272.477C123.659 272.844 123.751 273.297 123.751 273.837V278H122.477V273.99C122.477 273.516 122.354 273.145 122.106 272.878C121.859 272.608 121.52 272.473 121.088 272.473C120.792 272.473 120.53 272.537 120.3 272.665C120.072 272.793 119.892 272.98 119.758 273.227C119.628 273.472 119.562 273.767 119.562 274.114Z" fill="white"/>
<defs>
<linearGradient id="paint0_linear_439_9626" x1="132.756" y1="136.486" x2="59.6942" y2="57.3921" gradientUnits="userSpaceOnUse">
<stop stop-color="#F26CF9"/>
<stop offset="1" stop-color="#EEEFFF"/>
</linearGradient>
<linearGradient id="paint1_linear_439_9626" x1="30.3254" y1="56.6629" x2="60.3977" y2="56.2315" gradientUnits="userSpaceOnUse">
<stop offset="0.180068" stop-color="#F26CF9"/>
<stop offset="1" stop-color="#460F48"/>
</linearGradient>
<linearGradient id="paint2_linear_439_9626" x1="30" y1="80" x2="58.0985" y2="84.046" gradientUnits="userSpaceOnUse">
<stop stop-color="#262C4A"/>
<stop offset="1" stop-color="#1E233B"/>
</linearGradient>
<linearGradient id="paint3_linear_439_9626" x1="27.09" y1="96.4466" x2="59.9541" y2="96.4466" gradientUnits="userSpaceOnUse">
<stop offset="0.201406" stop-color="#F26CF9"/>
<stop offset="0.821226" stop-color="#7B1D80"/>
</linearGradient>
<linearGradient id="paint4_linear_439_9626" x1="44.8172" y1="74.3976" x2="112.075" y2="72.9199" gradientUnits="userSpaceOnUse">
<stop stop-color="#3B4164"/>
<stop offset="1" stop-color="#1E233B"/>
</linearGradient>
<linearGradient id="paint5_linear_439_9626" x1="112.512" y1="17.0713" x2="31.7307" y2="144.601" gradientUnits="userSpaceOnUse">
<stop stop-color="#FCD3FE"/>
<stop offset="1" stop-color="#C256C7"/>
</linearGradient>
<linearGradient id="paint6_linear_439_9626" x1="108.738" y1="52.1333" x2="113.103" y2="63.1173" gradientUnits="userSpaceOnUse">
<stop stop-color="#F26CF9"/>
<stop offset="1" stop-color="#262C4A"/>
</linearGradient>
<linearGradient id="paint7_linear_439_9626" x1="99.684" y1="58.474" x2="107.751" y2="76.8823" gradientUnits="userSpaceOnUse">
<stop stop-color="#F9B776"/>
<stop offset="1" stop-color="#F47960"/>
</linearGradient>
<linearGradient id="paint8_linear_439_9626" x1="124.779" y1="122.397" x2="128.5" y2="122.397" gradientUnits="userSpaceOnUse">
<stop stop-color="#3B4164"/>
<stop offset="1" stop-color="#1E233B"/>
</linearGradient>
<linearGradient id="paint9_linear_439_9626" x1="109.056" y1="137.027" x2="114.379" y2="74.6254" gradientUnits="userSpaceOnUse">
<stop stop-color="#F9B776"/>
<stop offset="1" stop-color="#F47960"/>
</linearGradient>
<linearGradient id="paint10_linear_439_9626" x1="107.491" y1="121.72" x2="113.512" y2="121.72" gradientUnits="userSpaceOnUse">
<stop stop-color="#3B4164"/>
<stop offset="1" stop-color="#1E233B"/>
</linearGradient>
<linearGradient id="paint11_linear_439_9626" x1="119.827" y1="137.956" x2="125.152" y2="75.5374" gradientUnits="userSpaceOnUse">
<stop stop-color="#F9B776"/>
<stop offset="1" stop-color="#F47960"/>
</linearGradient>
<linearGradient id="paint12_linear_439_9626" x1="123.937" y1="75.3174" x2="110.606" y2="96.71" gradientUnits="userSpaceOnUse">
<stop stop-color="#F26CF9"/>
<stop offset="1" stop-color="#3B4164"/>
</linearGradient>
<linearGradient id="paint13_linear_439_9626" x1="108.887" y1="51.6258" x2="110.166" y2="75.0837" gradientUnits="userSpaceOnUse">
<stop stop-color="#F9B776"/>
<stop offset="1" stop-color="#F47960"/>
</linearGradient>
<linearGradient id="paint14_linear_439_9626" x1="105.93" y1="66.0606" x2="114.666" y2="50.4657" gradientUnits="userSpaceOnUse">
<stop stop-color="#F9B776"/>
<stop offset="1" stop-color="#FCD3FE"/>
</linearGradient>
<linearGradient id="paint15_linear_439_9626" x1="107.817" y1="52.4992" x2="112.183" y2="63.4832" gradientUnits="userSpaceOnUse">
<stop stop-color="#F26CF9"/>
<stop offset="1" stop-color="#1E233B"/>
</linearGradient>
<linearGradient id="paint16_linear_439_9626" x1="107.798" y1="67.1073" x2="116.535" y2="51.5123" gradientUnits="userSpaceOnUse">
<stop stop-color="#F9B776"/>
<stop offset="1" stop-color="#F47960"/>
</linearGradient>
<linearGradient id="paint17_linear_439_9626" x1="98.082" y1="59.176" x2="106.149" y2="77.5844" gradientUnits="userSpaceOnUse">
<stop stop-color="#F9B776"/>
<stop offset="1" stop-color="#F47960"/>
</linearGradient>
<linearGradient id="paint18_linear_439_9626" x1="102.331" y1="37.3364" x2="89.3433" y2="64.1229" gradientUnits="userSpaceOnUse">
<stop stop-color="#F9B776"/>
<stop offset="0.5821" stop-color="#F69369"/>
<stop offset="1" stop-color="#F47960"/>
</linearGradient>
<linearGradient id="paint19_linear_439_9626" x1="112.614" y1="79.0957" x2="119.296" y2="79.0957" gradientUnits="userSpaceOnUse">
<stop stop-color="#F9B776"/>
<stop offset="1" stop-color="#F47960"/>
</linearGradient>
<clipPath id="clip0_439_9626">
<rect width="102" height="100" fill="white" transform="translate(26.5 24)"/>
</clipPath>
</defs>
</svg>
